# Blender v3.3.1 OBJ File: 'player.blend'
# www.blender.org
mtllib player_legR.mtl
o LegR_立方体.005
v -0.109543 -1.511532 -0.304311
v -0.109543 -1.114311 -0.304311
v -0.109543 -1.511532 1.159224
v -0.109543 -1.114311 1.159224
v -0.907647 -1.511532 -0.304311
v -0.907647 -1.114311 -0.304311
v -0.907647 -1.511532 1.159224
v -0.907647 -1.114311 1.159224
v -0.205871 -1.511532 1.159224
v -0.205871 -1.114311 1.159224
v -0.205871 -1.511532 -0.304311
v -0.205871 -1.114311 -0.304311
v -0.807027 -1.114311 1.159224
v -0.807027 -1.511532 -0.304311
v -0.807027 -1.511532 1.159224
v -0.807027 -1.114311 -0.304311
v -0.109543 -1.216253 -0.304311
v -0.109543 -1.216253 1.159224
v -0.907647 -1.216253 1.159224
v -0.907647 -1.216253 -0.304311
v -0.205871 -1.216253 -0.304311
v -0.205871 -1.216253 1.159224
v -0.807027 -1.216253 -0.304311
v -0.807027 -1.216253 1.159224
v -0.109543 -1.416038 1.159224
v -0.907647 -1.416038 1.159224
v -0.907647 -1.416038 -0.304311
v -0.205871 -1.416038 -0.304311
v -0.205871 -1.416038 1.159224
v -0.807027 -1.416038 -0.304311
v -0.807027 -1.416038 1.159224
v -0.109543 -1.416038 -0.304311
v -0.109543 -1.511532 -0.200301
v -0.109543 -1.114311 -0.200301
v -0.907647 -1.511532 -0.200301
v -0.907647 -1.114311 -0.200301
v -0.205871 -1.114311 -0.200301
v -0.205871 -1.511532 -0.200301
v -0.807027 -1.114311 -0.200301
v -0.807027 -1.511532 -0.200301
v -0.907647 -1.216253 -0.200301
v -0.109543 -1.216253 -0.200301
v -0.109543 -1.416038 -0.200301
v -0.907647 -1.416038 -0.200301
v -0.109543 -1.114311 1.060135
v -0.907647 -1.511532 1.060135
v -0.109543 -1.216253 1.060135
v -0.109543 -1.416038 1.060135
v -0.109543 -1.511532 1.060135
v -0.907647 -1.114311 1.060135
v -0.205871 -1.114311 1.060135
v -0.205871 -1.511532 1.060135
v -0.807027 -1.114311 1.060135
v -0.807027 -1.511532 1.060135
v -0.907647 -1.216253 1.060135
v -0.907647 -1.416038 1.060135
vt 0.083759 0.864586
vt 0.088278 0.862387
vt 0.088278 0.864586
vt 0.119322 0.866165
vt 0.123841 0.862387
vt 0.123841 0.866165
vt 0.119668 0.799721
vt 0.124187 0.797412
vt 0.124187 0.799721
vt 0.136930 0.866004
vt 0.141449 0.862387
vt 0.141449 0.866004
vt 0.119668 0.860078
vt 0.117404 0.862387
vt 0.117404 0.860078
vt 0.176836 0.837016
vt 0.152319 0.852665
vt 0.152319 0.837016
vt 0.117501 0.827591
vt 0.103977 0.829899
vt 0.103977 0.827591
vt 0.103880 0.860078
vt 0.101713 0.862387
vt 0.101713 0.860078
vt 0.136930 0.888579
vt 0.141449 0.888579
vt 0.119322 0.892358
vt 0.123841 0.888740
vt 0.123841 0.892358
vt 0.136930 0.892358
vt 0.141449 0.892358
vt 0.101713 0.829899
vt 0.101713 0.827591
vt 0.103880 0.862387
vt 0.119322 0.888740
vt 0.453476 0.618984
vt 0.553674 0.465979
vt 0.553674 0.618984
vt 0.150306 0.888579
vt 0.150306 0.892358
vt 0.132697 0.888740
vt 0.132697 0.892358
vt 0.652693 0.617892
vt 0.752891 0.464886
vt 0.752891 0.617892
vt 0.150306 0.862387
vt 0.150306 0.866004
vt 0.133043 0.797412
vt 0.133043 0.799721
vt 0.132697 0.862387
vt 0.132697 0.866165
vt 0.097134 0.862387
vt 0.097134 0.864586
vt 0.101367 0.862387
vt 0.101367 0.864586
vt 0.136930 0.862387
vt 0.136930 0.866165
vt 0.137276 0.797412
vt 0.137276 0.799721
vt 0.154539 0.862387
vt 0.154539 0.866004
vt 0.154539 0.888579
vt 0.136930 0.888740
vt 0.136930 0.892358
vt 0.154539 0.892358
vt 0.133043 0.827700
vt 0.137276 0.827700
vt 0.097134 0.894874
vt 0.101367 0.892565
vt 0.101367 0.894874
vt 0.088278 0.894874
vt 0.097134 0.892565
vt 0.457392 0.205277
vt 0.557590 0.015648
vt 0.557590 0.205277
vt 0.380656 0.235092
vt 0.227650 0.424721
vt 0.227650 0.235092
vt 0.103977 0.799612
vt 0.101713 0.799612
vt 0.103880 0.832099
vt 0.101713 0.832099
vt 0.381748 0.014908
vt 0.228742 0.204536
vt 0.228742 0.014908
vt 0.119668 0.799612
vt 0.117501 0.799612
vt 0.119668 0.832099
vt 0.117404 0.832099
vt 0.119668 0.827700
vt 0.124187 0.827700
vt 0.083759 0.894874
vt 0.088278 0.892565
vt 0.119668 0.829899
vt 0.124187 0.829899
vt 0.119668 0.829899
vt 0.117404 0.829899
vt 0.119668 0.797412
vt 0.117501 0.797412
vt 0.103977 0.797412
vt 0.103880 0.829899
vt 0.101713 0.829899
vt 0.101713 0.797412
vt 0.133043 0.829899
vt 0.137276 0.829899
vt 0.051127 0.644906
vt 0.151324 0.455277
vt 0.151324 0.644906
vt 0.083759 0.892565
vt 0.083759 0.862387
vt 0.119322 0.862387
vt 0.119668 0.797412
vt 0.136930 0.862387
vt 0.119668 0.862387
vt 0.176836 0.852665
vt 0.117501 0.829899
vt 0.453476 0.465979
vt 0.652693 0.464886
vt 0.457392 0.015648
vt 0.380656 0.424721
vt 0.381748 0.204536
vt 0.119668 0.827591
vt 0.051127 0.455277
vn 1.0000 0.0000 0.0000
vn 0.0000 0.0000 1.0000
vn -1.0000 0.0000 0.0000
vn 0.0000 0.0000 -1.0000
vn 0.0000 -1.0000 0.0000
vn 0.0000 1.0000 0.0000
usemtl マテリアル.001
s off
f 45/1/1 18/2/1 47/3/1
f 13/4/2 19/5/2 24/6/2
f 36/7/3 20/8/3 41/9/3
f 12/10/4 17/11/4 21/12/4
f 35/13/5 14/14/5 40/15/5
f 34/16/6 12/17/6 37/18/6
f 37/19/6 16/20/6 39/21/6
f 38/22/5 1/23/5 33/24/5
f 16/25/4 21/12/4 23/26/4
f 4/27/2 22/28/2 18/29/2
f 6/30/4 23/26/4 20/31/4
f 39/21/6 6/32/6 36/33/6
f 40/15/5 11/34/5 38/22/5
f 10/35/2 24/6/2 22/28/2
f 22/36/2 31/37/2 29/38/2
f 20/31/4 30/39/4 27/40/4
f 18/29/2 29/41/2 25/42/2
f 23/43/4 28/44/4 30/45/4
f 21/12/4 32/46/4 28/47/4
f 41/9/3 27/48/3 44/49/3
f 24/6/2 26/50/2 31/51/2
f 47/3/1 25/52/1 48/53/1
f 48/53/1 3/54/1 49/55/1
f 31/51/2 7/56/2 15/57/2
f 44/49/3 5/58/3 35/59/3
f 28/47/4 1/60/4 11/61/4
f 30/39/4 11/61/4 14/62/4
f 25/42/2 9/63/2 3/64/2
f 27/40/4 14/62/4 5/65/4
f 29/41/2 15/57/2 9/63/2
f 56/66/3 35/59/3 46/67/3
f 32/68/1 33/69/1 1/70/1
f 17/71/1 43/72/1 32/68/1
f 55/73/3 44/74/3 56/75/3
f 54/76/5 38/77/5 52/78/5
f 53/79/6 36/33/6 50/80/6
f 52/81/5 33/24/5 49/82/5
f 51/83/6 39/84/6 53/85/6
f 45/86/6 37/19/6 51/87/6
f 46/88/5 40/15/5 54/89/5
f 50/90/3 41/9/3 55/91/3
f 2/92/1 42/93/1 17/71/1
f 8/94/3 55/91/3 19/95/3
f 7/96/5 54/89/5 15/97/5
f 4/98/6 51/87/6 10/99/6
f 10/99/6 53/79/6 13/100/6
f 9/101/5 49/82/5 3/102/5
f 13/100/6 50/80/6 8/103/6
f 15/97/5 52/81/5 9/101/5
f 19/95/3 56/66/3 26/104/3
f 26/104/3 46/67/3 7/105/3
f 43/72/1 49/55/1 33/69/1
f 42/106/1 48/107/1 43/108/1
f 34/109/1 47/3/1 42/93/1
f 45/1/1 4/110/1 18/2/1
f 13/4/2 8/111/2 19/5/2
f 36/7/3 6/112/3 20/8/3
f 12/10/4 2/113/4 17/11/4
f 35/13/5 5/114/5 14/14/5
f 34/16/6 2/115/6 12/17/6
f 37/19/6 12/116/6 16/20/6
f 38/22/5 11/34/5 1/23/5
f 16/25/4 12/10/4 21/12/4
f 4/27/2 10/35/2 22/28/2
f 6/30/4 16/25/4 23/26/4
f 39/21/6 16/20/6 6/32/6
f 40/15/5 14/14/5 11/34/5
f 10/35/2 13/4/2 24/6/2
f 22/36/2 24/117/2 31/37/2
f 20/31/4 23/26/4 30/39/4
f 18/29/2 22/28/2 29/41/2
f 23/43/4 21/118/4 28/44/4
f 21/12/4 17/11/4 32/46/4
f 41/9/3 20/8/3 27/48/3
f 24/6/2 19/5/2 26/50/2
f 47/3/1 18/2/1 25/52/1
f 48/53/1 25/52/1 3/54/1
f 31/51/2 26/50/2 7/56/2
f 44/49/3 27/48/3 5/58/3
f 28/47/4 32/46/4 1/60/4
f 30/39/4 28/47/4 11/61/4
f 25/42/2 29/41/2 9/63/2
f 27/40/4 30/39/4 14/62/4
f 29/41/2 31/51/2 15/57/2
f 56/66/3 44/49/3 35/59/3
f 32/68/1 43/72/1 33/69/1
f 17/71/1 42/93/1 43/72/1
f 55/73/3 41/119/3 44/74/3
f 54/76/5 40/120/5 38/77/5
f 53/79/6 39/21/6 36/33/6
f 52/81/5 38/22/5 33/24/5
f 51/83/6 37/121/6 39/84/6
f 45/86/6 34/122/6 37/19/6
f 46/88/5 35/13/5 40/15/5
f 50/90/3 36/7/3 41/9/3
f 2/92/1 34/109/1 42/93/1
f 8/94/3 50/90/3 55/91/3
f 7/96/5 46/88/5 54/89/5
f 4/98/6 45/86/6 51/87/6
f 10/99/6 51/87/6 53/79/6
f 9/101/5 52/81/5 49/82/5
f 13/100/6 53/79/6 50/80/6
f 15/97/5 54/89/5 52/81/5
f 19/95/3 55/91/3 56/66/3
f 26/104/3 56/66/3 46/67/3
f 43/72/1 48/53/1 49/55/1
f 42/106/1 47/123/1 48/107/1
f 34/109/1 45/1/1 47/3/1
