# Blender v3.3.1 OBJ File: 'player.blend'
# www.blender.org
mtllib player_legL.mtl
o LegL_立方体.002
v 0.109543 -1.511532 -0.304311
v 0.109543 -1.114311 -0.304311
v 0.109543 -1.511532 1.159224
v 0.109543 -1.114311 1.159224
v 0.907647 -1.511532 -0.304311
v 0.907647 -1.114311 -0.304311
v 0.907647 -1.511532 1.159224
v 0.907647 -1.114311 1.159224
v 0.205871 -1.511532 1.159224
v 0.205871 -1.114311 1.159224
v 0.205871 -1.511532 -0.304311
v 0.205871 -1.114311 -0.304311
v 0.807027 -1.114311 1.159224
v 0.807027 -1.511532 -0.304311
v 0.807027 -1.511532 1.159224
v 0.807027 -1.114311 -0.304311
v 0.109543 -1.216253 -0.304311
v 0.109543 -1.216253 1.159224
v 0.907647 -1.216253 1.159224
v 0.907647 -1.216253 -0.304311
v 0.205871 -1.216253 -0.304311
v 0.205871 -1.216253 1.159224
v 0.807027 -1.216253 -0.304311
v 0.807027 -1.216253 1.159224
v 0.109543 -1.416039 1.159224
v 0.907647 -1.416039 1.159224
v 0.907647 -1.416039 -0.304311
v 0.205871 -1.416039 -0.304311
v 0.205871 -1.416039 1.159224
v 0.807027 -1.416039 -0.304311
v 0.807027 -1.416039 1.159224
v 0.109543 -1.416039 -0.304311
v 0.109543 -1.511532 -0.200301
v 0.109543 -1.114311 -0.200301
v 0.907647 -1.511532 -0.200301
v 0.907647 -1.114311 -0.200301
v 0.205871 -1.114311 -0.200301
v 0.205871 -1.511532 -0.200301
v 0.807027 -1.114311 -0.200301
v 0.807027 -1.511532 -0.200301
v 0.907647 -1.216253 -0.200301
v 0.109543 -1.216253 -0.200301
v 0.109543 -1.416039 -0.200301
v 0.907647 -1.416039 -0.200301
v 0.109543 -1.114311 1.060135
v 0.907647 -1.511532 1.060135
v 0.109543 -1.216253 1.060135
v 0.109543 -1.416039 1.060135
v 0.109543 -1.511532 1.060135
v 0.907647 -1.114311 1.060135
v 0.205871 -1.114311 1.060135
v 0.205871 -1.511532 1.060135
v 0.807027 -1.114311 1.060135
v 0.807027 -1.511532 1.060135
v 0.907647 -1.216253 1.060135
v 0.907647 -1.416039 1.060135
vt 0.101713 0.864586
vt 0.106232 0.864586
vt 0.106232 0.862387
vt 0.137276 0.831162
vt 0.141795 0.831162
vt 0.141795 0.827384
vt 0.119668 0.832208
vt 0.124187 0.832208
vt 0.124187 0.829899
vt 0.137276 0.801030
vt 0.141795 0.801030
vt 0.141795 0.797412
vt 0.101713 0.860078
vt 0.099450 0.860078
vt 0.099450 0.862387
vt 0.244988 0.827715
vt 0.220471 0.827715
vt 0.220471 0.843363
vt 0.067465 0.827715
vt 0.067465 0.843363
vt 0.085926 0.860078
vt 0.083759 0.860078
vt 0.083759 0.862387
vt 0.137276 0.823605
vt 0.141795 0.823605
vt 0.137276 0.857355
vt 0.141795 0.857355
vt 0.141795 0.853737
vt 0.137276 0.827384
vt 0.141795 0.827384
vt 0.041855 0.827715
vt 0.041855 0.843363
vt 0.085926 0.862387
vt 0.137276 0.853737
vt 0.656609 0.381748
vt 0.756807 0.381748
vt 0.756807 0.228742
vt 0.150652 0.827384
vt 0.150652 0.823605
vt 0.150652 0.857355
vt 0.150652 0.853737
vt 0.656609 0.177523
vt 0.756807 0.177523
vt 0.756807 0.024517
vt 0.150652 0.801030
vt 0.150652 0.797412
vt 0.133043 0.832208
vt 0.133043 0.829899
vt 0.150652 0.831162
vt 0.150652 0.827384
vt 0.115089 0.864586
vt 0.115089 0.862387
vt 0.119322 0.864586
vt 0.119322 0.862387
vt 0.154885 0.831162
vt 0.154885 0.827384
vt 0.137276 0.832208
vt 0.137276 0.829899
vt 0.154885 0.801030
vt 0.154885 0.797412
vt 0.154885 0.823605
vt 0.154885 0.857355
vt 0.154885 0.853737
vt 0.154885 0.827384
vt 0.133043 0.860187
vt 0.137276 0.860187
vt 0.119322 0.894874
vt 0.119322 0.892565
vt 0.115089 0.892565
vt 0.106232 0.894874
vt 0.115089 0.894874
vt 0.457392 0.425462
vt 0.557590 0.425462
vt 0.557590 0.235833
vt 0.177523 0.235092
vt 0.024517 0.235092
vt 0.024517 0.424721
vt 0.086023 0.799612
vt 0.083759 0.799612
vt 0.083759 0.827591
vt 0.085926 0.832099
vt 0.083759 0.832099
vt 0.178615 0.014908
vt 0.025610 0.014908
vt 0.025609 0.204536
vt 0.101713 0.799612
vt 0.099546 0.799612
vt 0.099546 0.827591
vt 0.101713 0.832099
vt 0.099450 0.832099
vt 0.119668 0.860187
vt 0.124187 0.860187
vt 0.101713 0.894874
vt 0.106232 0.892565
vt 0.119668 0.862387
vt 0.124187 0.862387
vt 0.101713 0.829899
vt 0.099450 0.829899
vt 0.101713 0.797412
vt 0.099546 0.797412
vt 0.086023 0.797412
vt 0.085926 0.829899
vt 0.083759 0.829899
vt 0.083759 0.797412
vt 0.133043 0.862387
vt 0.137276 0.862387
vt 0.254259 0.644906
vt 0.354457 0.644906
vt 0.354457 0.455277
vt 0.101713 0.892565
vt 0.101713 0.862387
vt 0.137276 0.827384
vt 0.119668 0.829899
vt 0.137276 0.797412
vt 0.101713 0.862387
vt 0.244988 0.843363
vt 0.656609 0.228742
vt 0.656609 0.024517
vt 0.457392 0.235833
vt 0.177523 0.424721
vt 0.086023 0.827591
vt 0.178615 0.204536
vt 0.101713 0.827591
vt 0.254259 0.455277
vn -1.0000 0.0000 0.0000
vn 0.0000 0.0000 1.0000
vn 1.0000 0.0000 0.0000
vn 0.0000 0.0000 -1.0000
vn 0.0000 -1.0000 0.0000
vn 0.0000 1.0000 0.0000
usemtl マテリアル
s off
f 45/1/1 47/2/1 18/3/1
f 13/4/2 24/5/2 19/6/2
f 36/7/3 41/8/3 20/9/3
f 12/10/4 21/11/4 17/12/4
f 35/13/5 40/14/5 14/15/5
f 34/16/6 37/17/6 12/18/6
f 37/17/6 39/19/6 16/20/6
f 38/21/5 33/22/5 1/23/5
f 16/24/4 23/25/4 21/11/4
f 4/26/2 18/27/2 22/28/2
f 6/29/4 20/30/4 23/25/4
f 39/19/6 36/31/6 6/32/6
f 40/14/5 38/21/5 11/33/5
f 10/34/2 22/28/2 24/5/2
f 22/35/2 29/36/2 31/37/2
f 20/30/4 27/38/4 30/39/4
f 18/27/2 25/40/2 29/41/2
f 23/42/4 30/43/4 28/44/4
f 21/11/4 28/45/4 32/46/4
f 41/8/3 44/47/3 27/48/3
f 24/5/2 31/49/2 26/50/2
f 47/2/1 48/51/1 25/52/1
f 48/51/1 49/53/1 3/54/1
f 31/49/2 15/55/2 7/56/2
f 35/57/3 5/58/3 27/48/3
f 28/45/4 11/59/4 1/60/4
f 30/39/4 14/61/4 11/59/4
f 25/40/2 3/62/2 9/63/2
f 27/38/4 5/64/4 14/61/4
f 29/41/2 9/63/2 15/55/2
f 56/65/3 46/66/3 35/57/3
f 1/67/1 33/68/1 43/69/1
f 17/70/1 32/71/1 43/69/1
f 55/72/3 56/73/3 44/74/3
f 54/75/5 52/76/5 38/77/5
f 53/78/6 50/79/6 36/80/6
f 52/81/5 49/82/5 33/22/5
f 51/83/6 53/84/6 39/85/6
f 45/86/6 51/87/6 37/88/6
f 46/89/5 54/90/5 40/14/5
f 50/91/3 55/92/3 41/8/3
f 2/93/1 17/70/1 42/94/1
f 8/95/3 19/96/3 55/92/3
f 7/97/5 15/98/5 54/90/5
f 4/99/6 10/100/6 51/87/6
f 10/100/6 13/101/6 53/78/6
f 9/102/5 3/103/5 49/82/5
f 13/101/6 8/104/6 50/79/6
f 15/98/5 9/102/5 52/81/5
f 19/96/3 26/105/3 56/65/3
f 26/105/3 7/106/3 46/66/3
f 43/69/1 33/68/1 49/53/1
f 42/107/1 43/108/1 48/109/1
f 34/110/1 42/94/1 47/2/1
f 45/1/1 18/3/1 4/111/1
f 13/4/2 19/6/2 8/112/2
f 36/7/3 20/9/3 6/113/3
f 12/10/4 17/12/4 2/114/4
f 35/13/5 14/15/5 5/115/5
f 34/16/6 12/18/6 2/116/6
f 37/17/6 16/20/6 12/18/6
f 38/21/5 1/23/5 11/33/5
f 16/24/4 21/11/4 12/10/4
f 4/26/2 22/28/2 10/34/2
f 6/29/4 23/25/4 16/24/4
f 39/19/6 6/32/6 16/20/6
f 40/14/5 11/33/5 14/15/5
f 10/34/2 24/5/2 13/4/2
f 22/35/2 31/37/2 24/117/2
f 20/30/4 30/39/4 23/25/4
f 18/27/2 29/41/2 22/28/2
f 23/42/4 28/44/4 21/118/4
f 21/11/4 32/46/4 17/12/4
f 41/8/3 27/48/3 20/9/3
f 24/5/2 26/50/2 19/6/2
f 47/2/1 25/52/1 18/3/1
f 48/51/1 3/54/1 25/52/1
f 31/49/2 7/56/2 26/50/2
f 35/57/3 27/48/3 44/47/3
f 28/45/4 1/60/4 32/46/4
f 30/39/4 11/59/4 28/45/4
f 25/40/2 9/63/2 29/41/2
f 27/38/4 14/61/4 30/39/4
f 29/41/2 15/55/2 31/49/2
f 56/65/3 35/57/3 44/47/3
f 1/67/1 43/69/1 32/71/1
f 17/70/1 43/69/1 42/94/1
f 55/72/3 44/74/3 41/119/3
f 54/75/5 38/77/5 40/120/5
f 53/78/6 36/80/6 39/121/6
f 52/81/5 33/22/5 38/21/5
f 51/83/6 39/85/6 37/122/6
f 45/86/6 37/88/6 34/123/6
f 46/89/5 40/14/5 35/13/5
f 50/91/3 41/8/3 36/7/3
f 2/93/1 42/94/1 34/110/1
f 8/95/3 55/92/3 50/91/3
f 7/97/5 54/90/5 46/89/5
f 4/99/6 51/87/6 45/86/6
f 10/100/6 53/78/6 51/87/6
f 9/102/5 49/82/5 52/81/5
f 13/101/6 50/79/6 53/78/6
f 15/98/5 52/81/5 54/90/5
f 19/96/3 56/65/3 55/92/3
f 26/105/3 46/66/3 56/65/3
f 43/69/1 49/53/1 48/51/1
f 42/107/1 48/109/1 47/124/1
f 34/110/1 47/2/1 45/1/1
