# Blender v3.3.1 OBJ File: ''
# www.blender.org
mtllib player_body.mtl
o 立方体
v 1.000000 -1.000000 -1.000000
v 1.000000 1.000000 -1.000000
v 1.000000 -1.000000 1.000000
v 1.000000 1.000000 1.000000
v -1.000000 -1.000000 -1.000000
v -1.000000 1.000000 -1.000000
v -1.000000 -1.000000 1.000000
v -1.000000 1.000000 1.000000
v 1.000000 -0.898913 -1.000000
v 1.000000 -0.898913 1.000000
v -1.000000 -0.898913 1.000000
v -1.000000 -0.898913 -1.000000
v 1.000000 0.895627 -1.000000
v 1.000000 0.895627 1.000000
v -1.000000 0.898680 1.000000
v -1.000000 0.898680 -1.000000
v 0.897623 -1.000000 1.000000
v 0.897623 1.000000 1.000000
v 0.897623 -1.000000 -1.000000
v 0.897623 1.000000 -1.000000
v 0.897623 -0.898913 -1.000000
v 0.897623 -0.898913 1.000000
v 0.897623 0.898680 -1.000000
v 0.897623 0.898680 1.000000
v -0.898171 1.000000 1.000000
v -0.898171 -1.000000 -1.000000
v -0.898171 -0.898913 1.000000
v -0.898171 0.898680 1.000000
v -0.898171 -1.000000 1.000000
v -0.898171 1.000000 -1.000000
v -0.898171 -0.898913 -1.000000
v -0.898171 0.898680 -1.000000
v 1.000000 -1.000000 0.901419
v 1.000000 1.000000 0.901419
v -1.000000 -1.000000 0.901419
v -1.000000 1.000000 0.901419
v -1.000000 -0.898913 0.901419
v 1.000000 -0.898913 0.901419
v -1.000000 0.898680 0.901419
v 1.000000 0.895627 0.901419
v 0.897623 1.000000 0.901419
v 0.897623 -1.000000 0.901419
v -0.898171 1.000000 0.901419
v -0.898171 -1.000000 0.901419
v 1.000000 -1.000000 -0.901428
v -1.000000 1.000000 -0.901428
v -1.000000 -0.898913 -0.901428
v -1.000000 0.898680 -0.901428
v 0.897623 1.000000 -0.901428
v 0.897623 -1.000000 -0.901428
v -0.898171 1.000000 -0.901428
v -0.898171 -1.000000 -0.901428
v 1.000000 1.000000 -0.901428
v -1.000000 -1.000000 -0.901428
v 1.000000 -0.898913 -0.901428
v 1.000000 0.895627 -0.901428
vt 0.683097 0.333333
vt 0.666667 0.315938
vt 0.683097 0.315938
vt 0.016971 0.333333
vt 0.000000 0.316447
vt 0.016971 0.316447
vt 0.016429 0.666667
vt 0.000000 0.649780
vt 0.016429 0.649780
vt 0.350396 0.316447
vt 0.333333 0.333333
vt 0.333333 0.315938
vt 0.666667 0.650238
vt 0.649695 0.666667
vt 0.649695 0.650238
vt 0.333333 0.983571
vt 0.316270 1.000000
vt 0.316270 0.983571
vt 0.350396 0.016848
vt 0.333333 0.000000
vt 0.350396 0.000000
vt 0.016429 0.350181
vt 0.000000 0.333333
vt 0.016429 0.333333
vt 0.016971 0.016848
vt 0.000000 0.000000
vt 0.016971 0.000000
vt 0.683097 0.016848
vt 0.666667 0.000000
vt 0.683097 0.000000
vt 0.333333 0.016848
vt 0.000000 0.350181
vt 0.000000 0.016848
vt 0.666667 0.016848
vt 0.333333 0.315938
vt 0.316270 0.016848
vt 0.333333 0.016848
vt 0.649695 0.316447
vt 0.649695 0.016848
vt 0.316270 0.000000
vt 0.333333 0.000000
vt 0.649695 0.000000
vt 0.016971 1.000000
vt 0.016971 0.983571
vt 0.350396 0.650238
vt 0.333333 0.666667
vt 0.333333 0.650238
vt 0.649695 0.333333
vt 0.333333 0.333333
vt 0.316270 0.316447
vt 0.666667 0.333333
vt 0.666667 0.316447
vt 0.000000 1.000000
vt 0.000000 0.983571
vt 0.666667 0.016848
vt 0.666667 0.000000
vt 0.350396 0.666667
vt 0.316270 0.333333
vt 0.649695 0.333333
vt 0.350396 0.349764
vt 0.350396 0.333333
vt 0.016971 0.666667
vt 0.000000 0.683097
vt 0.000000 0.666667
vt 0.333333 0.349764
vt 0.333333 0.333333
vt 0.316270 0.666667
vt 0.016971 0.683097
vt 0.983571 0.315938
vt 0.983571 0.016848
vt 0.333333 0.649780
vt 0.316903 0.350181
vt 0.333333 0.350181
vt 0.983571 0.000000
vt 0.316903 0.333333
vt 0.333333 0.333333
vt 0.333333 0.666667
vt 0.316270 0.683097
vt 0.666667 0.333333
vt 0.649695 0.349764
vt 0.333333 0.666667
vt 0.316903 0.649780
vt 0.983571 0.333333
vt 1.000000 0.333333
vt 1.000000 0.315938
vt 1.000000 0.016848
vt 1.000000 0.000000
vt 0.333333 0.683097
vt 0.666667 0.349764
vt 0.316903 0.666667
vt 0.666667 0.333333
vt 0.000000 0.333333
vt 0.000000 0.666667
vt 0.350396 0.333333
vt 0.666667 0.666667
vt 0.333333 1.000000
vn 1.0000 0.0000 0.0000
vn 0.0000 0.0000 1.0000
vn -1.0000 0.0000 0.0000
vn 0.0000 0.0000 -1.0000
vn 0.0000 -1.0000 0.0000
vn 0.0000 1.0000 0.0000
usemtl マテリアル
s off
f 34/1/1 14/2/1 40/3/1
f 25/4/2 15/5/2 28/6/2
f 46/7/3 16/8/3 48/9/3
f 23/10/4 2/11/4 13/12/4
f 54/13/5 26/14/5 52/15/5
f 53/16/6 20/17/6 49/18/6
f 21/19/4 1/20/4 19/21/4
f 47/22/3 5/23/3 54/24/3
f 27/25/2 7/26/2 29/27/2
f 38/28/1 3/29/1 33/30/1
f 21/19/4 13/12/4 9/31/4
f 48/9/3 12/32/3 47/22/3
f 28/6/2 11/33/2 27/25/2
f 40/3/1 10/34/1 38/28/1
f 14/35/2 22/36/2 10/37/2
f 32/38/4 21/19/4 31/39/4
f 10/37/2 17/40/2 3/41/2
f 31/39/4 19/21/4 26/42/4
f 49/18/6 30/43/6 51/44/6
f 50/45/5 1/46/5 45/47/5
f 30/48/4 23/10/4 32/38/4
f 4/49/2 24/50/2 14/35/2
f 6/51/4 32/38/4 16/52/4
f 51/44/6 6/53/6 46/54/6
f 12/55/4 26/42/4 5/56/4
f 16/52/4 31/39/4 12/55/4
f 24/50/2 27/25/2 22/36/2
f 22/36/2 29/27/2 17/40/2
f 52/15/5 19/57/5 50/45/5
f 18/58/2 28/6/2 24/50/2
f 29/59/5 42/60/5 17/61/5
f 25/62/6 36/63/6 8/64/6
f 17/61/5 33/65/5 3/66/5
f 18/67/6 43/68/6 25/62/6
f 56/69/1 38/28/1 55/70/1
f 15/71/3 37/72/3 11/73/3
f 55/70/1 33/30/1 45/74/1
f 11/73/3 35/75/3 7/76/3
f 4/77/6 41/78/6 18/67/6
f 7/79/5 44/80/5 29/59/5
f 8/81/3 39/82/3 15/71/3
f 53/83/1 40/3/1 56/69/1
f 2/84/1 56/69/1 13/85/1
f 9/86/1 45/74/1 1/87/1
f 13/85/1 55/70/1 9/86/1
f 44/80/5 50/45/5 42/60/5
f 43/68/6 46/54/6 36/63/6
f 42/60/5 45/47/5 33/65/5
f 41/78/6 51/44/6 43/68/6
f 39/82/3 47/22/3 37/72/3
f 37/72/3 54/24/3 35/75/3
f 34/88/6 49/18/6 41/78/6
f 35/89/5 52/15/5 44/80/5
f 36/90/3 48/9/3 39/82/3
f 34/1/1 4/91/1 14/2/1
f 25/4/2 8/92/2 15/5/2
f 46/7/3 6/93/3 16/8/3
f 23/10/4 20/94/4 2/11/4
f 54/13/5 5/95/5 26/14/5
f 53/16/6 2/96/6 20/17/6
f 21/19/4 9/31/4 1/20/4
f 47/22/3 12/32/3 5/23/3
f 27/25/2 11/33/2 7/26/2
f 38/28/1 10/34/1 3/29/1
f 21/19/4 23/10/4 13/12/4
f 48/9/3 16/8/3 12/32/3
f 28/6/2 15/5/2 11/33/2
f 40/3/1 14/2/1 10/34/1
f 14/35/2 24/50/2 22/36/2
f 32/38/4 23/10/4 21/19/4
f 10/37/2 22/36/2 17/40/2
f 31/39/4 21/19/4 19/21/4
f 49/18/6 20/17/6 30/43/6
f 50/45/5 19/57/5 1/46/5
f 30/48/4 20/94/4 23/10/4
f 4/49/2 18/58/2 24/50/2
f 6/51/4 30/48/4 32/38/4
f 51/44/6 30/43/6 6/53/6
f 12/55/4 31/39/4 26/42/4
f 16/52/4 32/38/4 31/39/4
f 24/50/2 28/6/2 27/25/2
f 22/36/2 27/25/2 29/27/2
f 52/15/5 26/14/5 19/57/5
f 18/58/2 25/4/2 28/6/2
f 29/59/5 44/80/5 42/60/5
f 25/62/6 43/68/6 36/63/6
f 17/61/5 42/60/5 33/65/5
f 18/67/6 41/78/6 43/68/6
f 56/69/1 40/3/1 38/28/1
f 15/71/3 39/82/3 37/72/3
f 55/70/1 38/28/1 33/30/1
f 11/73/3 37/72/3 35/75/3
f 4/77/6 34/88/6 41/78/6
f 7/79/5 35/89/5 44/80/5
f 8/81/3 36/90/3 39/82/3
f 53/83/1 34/1/1 40/3/1
f 2/84/1 53/83/1 56/69/1
f 9/86/1 55/70/1 45/74/1
f 13/85/1 56/69/1 55/70/1
f 44/80/5 52/15/5 50/45/5
f 43/68/6 51/44/6 46/54/6
f 42/60/5 50/45/5 45/47/5
f 41/78/6 49/18/6 51/44/6
f 39/82/3 48/9/3 47/22/3
f 37/72/3 47/22/3 54/24/3
f 34/88/6 53/16/6 49/18/6
f 35/89/5 54/13/5 52/15/5
f 36/90/3 46/7/3 48/9/3
