# Blender v3.3.1 OBJ File: 'player.blend'
# www.blender.org
mtllib player_body.mtl
o head_Cube
v -1.000283 1.000024 0.999694
v -1.000283 -0.999976 0.999694
v -1.000283 1.000024 -1.000306
v -1.000283 -0.999976 -1.000306
v 0.999717 1.000024 0.999694
v 0.999717 -0.999976 0.999694
v 0.999717 1.000024 -1.000306
v 0.999717 -0.999976 -1.000306
v -0.898279 -0.999976 0.999694
v -0.898279 1.000024 -1.000306
v -0.898279 -0.999976 -1.000306
v -0.898279 1.000024 0.999694
v 0.899034 -0.999976 0.999694
v 0.899034 1.000024 -1.000306
v 0.899034 -0.999976 -1.000306
v 0.899034 1.000024 0.999694
v -1.000283 -0.899533 0.999694
v 0.999717 -0.899533 -1.000306
v -1.000283 -0.899533 -1.000306
v 0.999717 -0.899533 0.999694
v -0.898279 -0.899533 0.999694
v -0.898279 -0.899533 -1.000306
v 0.899034 -0.899533 0.999694
v 0.899034 -0.899533 -1.000306
v 0.999717 0.899469 -1.000306
v -1.000283 0.899469 0.999694
v -1.000283 0.899469 -1.000306
v 0.999717 0.899469 0.999694
v -0.898279 0.899469 0.999694
v -0.898279 0.899469 -1.000306
v 0.899034 0.899469 0.999694
v 0.899034 0.899469 -1.000306
v 0.999717 -0.999976 0.898946
v -1.000283 1.000024 0.898946
v 0.999717 1.000024 0.898946
v -1.000283 -0.999976 0.898946
v -0.898279 -0.999976 0.898946
v -0.898279 1.000024 0.898946
v 0.899034 -0.999976 0.898946
v 0.899034 1.000024 0.898946
v -1.000283 -0.899533 0.898946
v 0.999717 -0.899533 0.898946
v -1.000283 0.899469 0.898946
v 0.999717 0.899469 0.898946
v 0.999717 -0.999976 -0.898131
v -1.000283 1.000024 -0.898131
v -0.898279 -0.999976 -0.898131
v -0.898279 1.000024 -0.898131
v 0.899034 -0.999976 -0.898131
v 0.899034 1.000024 -0.898131
v -1.000283 -0.899533 -0.898131
v -1.000283 0.899469 -0.898131
v 0.999717 1.000024 -0.898131
v -1.000283 -0.999976 -0.898131
v 0.999717 -0.899533 -0.898131
v 0.999717 0.899469 -0.898131
vt 0.119322 0.903079
vt 0.118435 0.904581
vt 0.118435 0.903079
vt 0.084645 0.904581
vt 0.083759 0.903103
vt 0.084645 0.903103
vt 0.120209 0.902065
vt 0.119322 0.900587
vt 0.120209 0.900587
vt 0.172147 0.900563
vt 0.171249 0.902065
vt 0.171249 0.900563
vt 0.137830 0.902065
vt 0.136930 0.900587
vt 0.137830 0.900587
vt 0.155437 0.872094
vt 0.154539 0.870616
vt 0.155437 0.870616
vt 0.171261 0.872094
vt 0.171261 0.870616
vt 0.155425 0.902065
vt 0.155425 0.900563
vt 0.101367 0.904581
vt 0.100469 0.903103
vt 0.101367 0.903103
vt 0.102612 0.903079
vt 0.101713 0.904581
vt 0.101713 0.903079
vt 0.154539 0.902065
vt 0.154539 0.900563
vt 0.172147 0.872094
vt 0.172147 0.870616
vt 0.100469 0.904581
vt 0.102612 0.904581
vt 0.100469 0.876664
vt 0.084645 0.875187
vt 0.100469 0.875187
vt 0.172147 0.844177
vt 0.171261 0.842700
vt 0.172147 0.842700
vt 0.101367 0.876664
vt 0.101367 0.875187
vt 0.171261 0.844177
vt 0.155437 0.842700
vt 0.155437 0.844177
vt 0.154539 0.842700
vt 0.137830 0.874148
vt 0.136930 0.872672
vt 0.137830 0.872672
vt 0.120209 0.874148
vt 0.119322 0.872672
vt 0.120209 0.872672
vt 0.084645 0.876664
vt 0.083759 0.875187
vt 0.189056 0.529442
vt 0.010029 0.350246
vt 0.189056 0.350246
vt 0.989971 0.309257
vt 0.810944 0.130062
vt 0.989971 0.130062
vt 0.154539 0.844177
vt 0.136930 0.874148
vt 0.119322 0.874148
vt 0.083759 0.876664
vt 0.591389 0.512390
vt 0.412385 0.333194
vt 0.591389 0.333194
vt 0.154539 0.900587
vt 0.153652 0.874148
vt 0.154539 0.874148
vt 0.136031 0.874148
vt 0.136031 0.872672
vt 0.153652 0.872672
vt 0.154539 0.872672
vt 0.118435 0.875187
vt 0.102612 0.876668
vt 0.102612 0.875187
vt 0.155425 0.872672
vt 0.154539 0.874152
vt 0.154539 0.872672
vt 0.101713 0.876668
vt 0.101713 0.875187
vt 0.171249 0.872672
vt 0.155425 0.874152
vt 0.154539 0.902065
vt 0.153652 0.900587
vt 0.172147 0.872672
vt 0.171249 0.874152
vt 0.136031 0.902065
vt 0.136031 0.900587
vt 0.119322 0.875187
vt 0.118435 0.876668
vt 0.136930 0.902065
vt 0.136930 0.900587
vt 0.136930 0.874148
vt 0.136930 0.872672
vt 0.790748 0.512390
vt 0.611744 0.333194
vt 0.790748 0.333194
vt 0.392321 0.350276
vt 0.213293 0.529280
vt 0.213293 0.350276
vt 0.989840 0.333225
vt 0.810812 0.512229
vt 0.810812 0.333225
vt 0.153652 0.902065
vt 0.172147 0.874152
vt 0.119322 0.876668
vt 0.119322 0.904581
vt 0.083759 0.904581
vt 0.119322 0.902065
vt 0.172147 0.902065
vt 0.136930 0.902065
vt 0.154539 0.872094
vt 0.010029 0.529442
vt 0.810944 0.309257
vt 0.412385 0.512390
vt 0.611744 0.512390
vt 0.392321 0.529280
vt 0.989840 0.512229
vn 0.0000 1.0000 0.0000
vn 0.0000 0.0000 -1.0000
vn 1.0000 0.0000 0.0000
vn 0.0000 -1.0000 0.0000
vn -1.0000 0.0000 0.0000
vn 0.0000 0.0000 1.0000
usemtl Material
s off
f 53/1/1 14/2/1 50/3/1
f 14/4/2 25/5/2 32/6/2
f 35/7/3 28/8/3 44/9/3
f 54/10/4 11/11/4 47/12/4
f 46/13/5 27/14/5 52/15/5
f 12/16/6 26/17/6 29/18/6
f 16/19/6 29/18/6 31/20/6
f 47/12/4 15/21/4 49/22/4
f 3/23/2 30/24/2 27/25/2
f 48/26/1 3/27/1 46/28/1
f 49/22/4 8/29/4 45/30/4
f 5/31/6 31/20/6 28/32/6
f 10/33/2 32/6/2 30/24/2
f 50/3/1 10/34/1 48/26/1
f 22/35/2 15/36/2 11/37/2
f 20/38/6 13/39/6 6/40/6
f 19/41/2 11/37/2 4/42/2
f 23/43/6 9/44/6 13/39/6
f 21/45/6 2/46/6 9/44/6
f 51/47/5 4/48/5 54/49/5
f 42/50/3 6/51/3 33/52/3
f 24/53/2 8/54/2 15/36/2
f 30/55/2 24/56/2 22/57/2
f 28/32/6 23/43/6 20/38/6
f 27/25/2 22/35/2 19/41/2
f 31/58/6 21/59/6 23/60/6
f 29/18/6 17/61/6 21/45/6
f 52/15/5 19/62/5 51/47/5
f 44/9/3 20/63/3 42/50/3
f 32/6/2 18/64/2 24/53/2
f 56/65/3 42/66/3 55/67/3
f 26/68/5 41/69/5 17/70/5
f 55/71/3 33/52/3 45/72/3
f 17/70/5 36/73/5 2/74/5
f 16/75/1 38/76/1 12/77/1
f 13/78/4 33/79/4 6/80/4
f 12/77/1 34/81/1 1/82/1
f 9/83/4 39/84/4 13/78/4
f 1/85/5 43/86/5 26/68/5
f 2/87/4 37/88/4 9/83/4
f 53/89/3 44/9/3 56/90/3
f 5/91/1 40/92/1 16/75/1
f 7/93/3 56/90/3 25/94/3
f 18/95/3 45/72/3 8/96/3
f 25/94/3 55/71/3 18/95/3
f 43/97/5 51/98/5 41/99/5
f 41/69/5 54/49/5 36/73/5
f 40/100/1 48/101/1 38/102/1
f 39/84/4 45/30/4 33/79/4
f 38/76/1 46/28/1 34/81/1
f 37/103/4 49/104/4 39/105/4
f 34/106/5 52/15/5 43/86/5
f 36/107/4 47/12/4 37/88/4
f 35/108/1 50/3/1 40/92/1
f 53/1/1 7/109/1 14/2/1
f 14/4/2 7/110/2 25/5/2
f 35/7/3 5/111/3 28/8/3
f 54/10/4 4/112/4 11/11/4
f 46/13/5 3/113/5 27/14/5
f 12/16/6 1/114/6 26/17/6
f 16/19/6 12/16/6 29/18/6
f 47/12/4 11/11/4 15/21/4
f 3/23/2 10/33/2 30/24/2
f 48/26/1 10/34/1 3/27/1
f 49/22/4 15/21/4 8/29/4
f 5/31/6 16/19/6 31/20/6
f 10/33/2 14/4/2 32/6/2
f 50/3/1 14/2/1 10/34/1
f 22/35/2 24/53/2 15/36/2
f 20/38/6 23/43/6 13/39/6
f 19/41/2 22/35/2 11/37/2
f 23/43/6 21/45/6 9/44/6
f 21/45/6 17/61/6 2/46/6
f 51/47/5 19/62/5 4/48/5
f 42/50/3 20/63/3 6/51/3
f 24/53/2 18/64/2 8/54/2
f 30/55/2 32/115/2 24/56/2
f 28/32/6 31/20/6 23/43/6
f 27/25/2 30/24/2 22/35/2
f 31/58/6 29/116/6 21/59/6
f 29/18/6 26/17/6 17/61/6
f 52/15/5 27/14/5 19/62/5
f 44/9/3 28/8/3 20/63/3
f 32/6/2 25/5/2 18/64/2
f 56/65/3 44/117/3 42/66/3
f 26/68/5 43/86/5 41/69/5
f 55/71/3 42/50/3 33/52/3
f 17/70/5 41/69/5 36/73/5
f 16/75/1 40/92/1 38/76/1
f 13/78/4 39/84/4 33/79/4
f 12/77/1 38/76/1 34/81/1
f 9/83/4 37/88/4 39/84/4
f 1/85/5 34/106/5 43/86/5
f 2/87/4 36/107/4 37/88/4
f 53/89/3 35/7/3 44/9/3
f 5/91/1 35/108/1 40/92/1
f 7/93/3 53/89/3 56/90/3
f 18/95/3 55/71/3 45/72/3
f 25/94/3 56/90/3 55/71/3
f 43/97/5 52/118/5 51/98/5
f 41/69/5 51/47/5 54/49/5
f 40/100/1 50/119/1 48/101/1
f 39/84/4 49/22/4 45/30/4
f 38/76/1 48/26/1 46/28/1
f 37/103/4 47/120/4 49/104/4
f 34/106/5 46/13/5 52/15/5
f 36/107/4 54/10/4 47/12/4
f 35/108/1 53/1/1 50/3/1
