# Blender v3.3.1 OBJ File: ''
# www.blender.org
mtllib gate.mtl
o Cube
v -1.462162 -0.008074 0.244035
v -1.462162 -2.148522 0.244035
v -1.462162 -0.008074 -0.244035
v -1.462162 -2.148522 -0.244035
v 1.462162 -0.008074 0.244035
v 1.462162 -2.148522 0.244035
v 1.462162 -0.008074 -0.244035
v 1.462162 -2.148522 -0.244035
v 0.000000 -2.148522 0.244035
v 0.000000 1.581505 -0.244035
v 0.000000 -2.148522 -0.244035
v 0.000000 1.581505 0.244035
v -0.734327 -2.148522 -0.244035
v -0.734327 1.287252 0.244035
v -0.734327 -2.148522 0.244035
v -0.734327 1.287252 -0.244035
v 0.731081 -2.148522 0.244035
v 0.731081 1.290181 -0.244035
v 0.731081 -2.148522 -0.244035
v 0.731081 1.290181 0.244035
v -1.098245 -2.148522 -0.244035
v -1.098245 0.532067 0.244035
v -1.098245 -2.148522 0.244035
v -1.098245 0.532067 -0.244035
v 1.096621 -2.148522 0.244035
v 1.096621 0.533532 -0.244035
v 1.096621 -2.148522 -0.244035
v 1.096621 0.533532 0.244035
v -1.280203 -2.148522 -0.244035
v -1.280203 0.520334 0.244035
v -1.280203 -2.148522 0.244035
v -1.280203 0.520334 -0.244035
v 1.279392 -2.148522 0.244035
v 1.279392 0.521067 -0.244035
v 1.279392 -2.148522 -0.244035
v 1.279392 0.521067 0.244035
v -0.367164 -2.148522 0.244035
v -0.367164 1.524863 -0.244035
v -0.367164 -2.148522 -0.244035
v -0.367164 1.524863 0.244035
v 0.365540 -2.148522 -0.244035
v 0.365540 1.526327 0.244035
v 0.365540 -2.148522 0.244035
v 0.365540 1.526327 -0.244035
v -1.462696 0.825255 0.244035
v -1.462696 0.825255 -0.244035
v 1.461628 0.825255 0.244035
v 1.461628 0.825255 -0.244035
v -0.000534 2.144414 -0.244035
v -0.000534 2.144414 0.244035
v -0.734862 1.941314 0.244035
v -0.734862 1.941314 -0.244035
v 0.730547 1.944243 -0.244035
v 0.730547 1.944243 0.244035
v -1.098779 1.632678 0.244035
v -1.098779 1.632678 -0.244035
v 1.096087 1.634142 -0.244035
v 1.096087 1.634142 0.244035
v -1.280738 1.353663 0.244035
v -1.280738 1.353663 -0.244035
v 1.278857 1.354395 -0.244035
v 1.278857 1.354395 0.244035
v -0.367698 2.095368 -0.244035
v -0.367698 2.095368 0.244035
v 0.365006 2.096832 0.244035
v 0.365006 2.096832 -0.244035
v -0.916286 -2.148522 0.244035
v -0.916286 1.063810 -0.244035
v -0.916286 -2.148522 -0.244035
v -0.916286 1.063810 0.244035
v -0.916820 1.786996 -0.244035
v -0.916820 1.786996 0.244035
v 0.913851 -2.148522 -0.244035
v 0.913851 1.066007 0.244035
v 0.913851 -2.148522 0.244035
v 0.913851 1.066007 -0.244035
v 0.913317 1.789193 0.244035
v 0.913317 1.789193 -0.244035
v -1.007265 -2.148522 -0.244035
v -1.007265 0.901681 0.244035
v -1.007800 1.709837 0.244035
v -1.007265 -2.148522 0.244035
v -1.007265 0.901681 -0.244035
v -1.007800 1.709837 -0.244035
v 1.005236 -2.148522 0.244035
v 1.005236 0.903511 -0.244035
v 1.004702 1.711668 -0.244035
v 1.005236 -2.148522 -0.244035
v 1.005236 0.903511 0.244035
v 1.004702 1.711668 0.244035
vt 0.528810 0.225976
vt 0.542603 0.163846
vt 0.542644 0.226920
vt 0.542644 0.428978
vt 0.556478 0.266970
vt 0.556478 0.428978
vt 0.593419 0.227548
vt 0.556478 0.104050
vt 0.593419 0.104050
vt 0.617647 0.473774
vt 0.580706 0.460002
vt 0.617647 0.460002
vt 0.630361 0.207986
vt 0.593419 0.104050
vt 0.630361 0.104050
vt 0.321285 0.428978
vt 0.335057 0.266970
vt 0.335057 0.428978
vt 0.689722 0.658953
vt 0.708001 0.842712
vt 0.689722 0.842712
vt 0.976211 0.894944
vt 0.951805 0.876665
vt 0.976211 0.876665
vt 0.835924 0.659026
vt 0.854284 0.842712
vt 0.835924 0.842712
vt 0.556478 0.275655
vt 0.556478 0.227548
vt 0.148302 0.197973
vt 0.141426 0.142672
vt 0.148343 0.136804
vt 0.808466 0.682081
vt 0.817564 0.842712
vt 0.808466 0.842712
vt 0.726361 0.842712
vt 0.744721 0.670908
vt 0.744721 0.842712
vt 0.976211 0.931663
vt 0.951805 0.913304
vt 0.976211 0.913304
vt 0.976211 0.858386
vt 0.951805 0.849247
vt 0.976211 0.849247
vt 0.662304 0.681971
vt 0.671444 0.842712
vt 0.662304 0.842712
vt 0.872563 0.842712
vt 0.890842 0.670761
vt 0.890842 0.842712
vt 0.307513 0.226087
vt 0.321325 0.163901
vt 0.321285 0.226975
vt 0.348910 0.226975
vt 0.362683 0.428978
vt 0.348910 0.428978
vt 0.369569 0.198111
vt 0.362642 0.142783
vt 0.369528 0.136943
vt 0.758369 0.842712
vt 0.762918 0.708670
vt 0.762918 0.842712
vt 0.976211 0.949861
vt 0.951805 0.945312
vt 0.976211 0.945312
vt 0.127552 0.226920
vt 0.141385 0.428978
vt 0.127552 0.428978
vt 0.630361 0.425036
vt 0.593419 0.411202
vt 0.630361 0.411202
vt 0.904551 0.842712
vt 0.909120 0.708597
vt 0.909120 0.842712
vt 0.501143 0.168706
vt 0.514936 0.130936
vt 0.514976 0.185674
vt 0.224388 0.146656
vt 0.196761 0.107651
vt 0.224428 0.104050
vt 0.335138 0.266970
vt 0.335138 0.428978
vt 0.307513 0.428978
vt 0.580706 0.446230
vt 0.617647 0.446230
vt 0.593419 0.397368
vt 0.630361 0.397368
vt 0.113718 0.266970
vt 0.113718 0.428978
vt 0.528810 0.428978
vt 0.279968 0.168928
vt 0.293781 0.131103
vt 0.293740 0.185840
vt 0.951805 0.894944
vt 0.726361 0.659026
vt 0.593419 0.248419
vt 0.593419 0.207986
vt 0.817564 0.670908
vt 0.473475 0.150832
vt 0.501102 0.119201
vt 0.872563 0.658953
vt 0.951805 0.858386
vt 0.671444 0.670761
vt 0.593419 0.315139
vt 0.556478 0.315139
vt 0.630361 0.397368
vt 0.593419 0.373669
vt 0.630361 0.373669
vt 0.630361 0.344871
vt 0.593419 0.326813
vt 0.630361 0.326813
vt 0.556478 0.376032
vt 0.593419 0.402743
vt 0.556478 0.402743
vt 0.630361 0.308755
vt 0.593419 0.284642
vt 0.630361 0.284642
vt 0.556478 0.340233
vt 0.593419 0.349183
vt 0.556478 0.349183
vt 0.630361 0.248419
vt 0.593419 0.340233
vt 0.593419 0.344871
vt 0.593419 0.423396
vt 0.556478 0.423396
vt 0.362683 0.226087
vt 0.348870 0.163901
vt 0.418018 0.150943
vt 0.390187 0.119422
vt 0.417977 0.107762
vt 0.141385 0.225976
vt 0.127592 0.163846
vt 0.335098 0.203896
vt 0.196720 0.150832
vt 0.169093 0.119201
vt 0.335098 0.203896
vt 0.113758 0.203896
vt 0.252218 0.107762
vt 0.252178 0.150943
vt 0.445808 0.146656
vt 0.473435 0.107651
vt 0.445767 0.104050
vt 0.556437 0.203896
vt 0.280009 0.119422
vt 0.593419 0.317784
vt 0.630361 0.317784
vt 0.300667 0.136943
vt 0.300627 0.198111
vt 0.976211 0.940762
vt 0.951805 0.931663
vt 0.753819 0.682081
vt 0.753820 0.842712
vt 0.390227 0.168928
vt 0.376415 0.131103
vt 0.803916 0.690188
vt 0.803916 0.842712
vt 0.556478 0.358132
vt 0.593419 0.376032
vt 0.521853 0.136804
vt 0.521893 0.197973
vt 0.899981 0.681971
vt 0.899981 0.842712
vt 0.657735 0.690096
vt 0.657735 0.842712
vt 0.951805 0.844677
vt 0.976211 0.844677
vt 0.169053 0.168706
vt 0.155259 0.130936
vt 0.799367 0.708670
vt 0.799367 0.842712
vt 0.307553 0.142783
vt 0.593419 0.308755
vt 0.951805 0.940762
vt 0.758369 0.690188
vt 0.376455 0.185840
vt 0.951805 0.840107
vt 0.976211 0.840107
vt 0.653165 0.708597
vt 0.653165 0.842712
vt 0.528770 0.142672
vt 0.593419 0.358132
vt 0.904551 0.690096
vt 0.155219 0.185674
vt 0.580706 0.473774
vt 0.708001 0.656194
vt 0.854284 0.656194
vt 0.593419 0.275655
vt 0.951805 0.949861
vt 0.593419 0.425036
vt 0.593419 0.397368
vn 0.0000 0.0000 -1.0000
vn 1.0000 0.0000 0.0000
vn 0.0000 -1.0000 0.0000
vn -1.0000 0.0000 0.0000
vn 0.0000 0.0000 1.0000
vn 1.0000 0.0006 0.0000
vn -1.0000 -0.0006 0.0000
vn 0.9452 0.3265 0.0000
vn -0.1324 0.9912 0.0000
vn -0.6468 0.7627 0.0000
vn 0.3852 0.9228 0.0000
vn -0.8376 0.5463 0.0000
vn 0.6469 0.7626 0.0000
vn -0.9455 0.3256 0.0000
vn 0.8372 0.5470 0.0000
vn -0.3869 0.9221 0.0000
vn 0.1291 0.9916 0.0000
usemtl Material
s off
f 26/1/1 61/2/1 34/3/1
f 35/4/1 7/5/1 8/6/1
f 7/7/2 6/8/2 8/9/2
f 2/10/3 29/11/3 31/12/3
f 1/13/4 4/14/4 2/15/4
f 31/16/5 1/17/5 2/18/5
f 42/19/5 9/20/5 43/21/5
f 9/22/3 41/23/3 43/24/3
f 38/25/1 11/26/1 39/27/1
f 7/7/6 47/28/6 5/29/6
f 89/30/5 58/31/5 90/32/5
f 68/33/1 13/34/1 69/35/1
f 37/36/5 14/37/5 15/38/5
f 15/39/3 39/40/3 37/41/3
f 17/42/3 73/43/3 75/44/3
f 74/45/5 17/46/5 75/47/5
f 41/48/1 18/49/1 19/50/1
f 22/51/5 59/52/5 30/53/5
f 32/54/1 21/55/1 29/56/1
f 83/57/1 56/58/1 84/59/1
f 82/60/5 22/61/5 23/62/5
f 23/63/3 79/64/3 82/65/3
f 36/66/5 25/67/5 33/68/5
f 25/69/3 35/70/3 33/71/3
f 88/72/1 26/73/1 27/74/1
f 18/75/1 78/76/1 76/77/1
f 12/78/5 65/79/5 50/80/5
f 3/81/1 29/56/1 4/82/1
f 23/83/5 30/53/5 31/16/5
f 31/12/3 21/84/3 23/85/3
f 33/71/3 8/86/3 6/87/3
f 5/88/5 33/68/5 6/89/5
f 27/90/1 34/3/1 35/4/1
f 14/91/5 72/92/5 70/93/5
f 37/41/3 11/94/3 9/22/3
f 9/20/5 40/95/5 37/36/5
f 1/13/7 46/96/7 3/97/7
f 16/98/1 39/27/1 13/34/1
f 44/99/1 53/100/1 18/75/1
f 11/26/1 44/101/1 41/48/1
f 43/24/3 19/102/3 17/42/3
f 20/103/5 43/21/5 17/46/5
f 47/28/8 61/104/8 62/105/8
f 50/106/9 63/107/9 64/108/9
f 51/109/10 71/110/10 72/111/10
f 54/112/11 66/113/11 65/114/11
f 55/115/12 60/116/12 59/117/12
f 58/118/13 87/119/13 90/120/13
f 59/117/14 46/96/14 45/121/14
f 62/105/15 57/122/15 58/118/15
f 64/108/16 52/123/16 51/109/16
f 65/114/17 49/124/17 50/125/17
f 24/126/1 60/127/1 56/58/1
f 38/128/1 52/129/1 63/130/1
f 28/131/5 62/132/5 58/31/5
f 30/53/5 45/133/5 1/17/5
f 42/134/5 54/135/5 65/79/5
f 32/54/1 46/136/1 60/127/1
f 36/66/5 47/137/5 62/132/5
f 12/78/5 64/138/5 40/139/5
f 10/140/1 66/141/1 44/99/1
f 10/140/1 63/130/1 49/142/1
f 34/3/1 48/143/1 7/5/1
f 40/139/5 51/144/5 14/91/5
f 72/111/10 84/145/10 81/146/10
f 70/93/5 81/147/5 80/148/5
f 67/149/3 13/150/3 15/39/3
f 15/38/5 70/151/5 67/152/5
f 16/153/1 71/154/1 52/129/1
f 83/155/1 69/35/1 79/156/1
f 77/157/13 53/158/13 54/112/13
f 76/77/1 87/159/1 86/160/1
f 19/50/1 76/161/1 73/162/1
f 89/163/5 75/47/5 85/164/5
f 75/44/3 88/165/3 85/166/3
f 20/167/5 77/168/5 54/135/5
f 24/169/1 79/156/1 21/170/1
f 80/148/5 55/171/5 22/51/5
f 81/146/10 56/172/10 55/115/10
f 82/65/3 69/173/3 67/149/3
f 67/152/5 80/174/5 82/60/5
f 68/175/1 84/59/1 71/154/1
f 85/166/3 27/176/3 25/177/3
f 28/178/5 85/164/5 25/179/5
f 86/160/1 57/180/1 26/1/1
f 90/120/13 78/181/13 77/157/13
f 73/162/1 86/182/1 88/72/1
f 74/183/5 90/32/5 77/168/5
f 26/1/1 57/180/1 61/2/1
f 35/4/1 34/3/1 7/5/1
f 7/7/2 5/29/2 6/8/2
f 2/10/3 4/184/3 29/11/3
f 1/13/4 3/97/4 4/14/4
f 31/16/5 30/53/5 1/17/5
f 42/19/5 12/185/5 9/20/5
f 9/22/3 11/94/3 41/23/3
f 38/25/1 10/186/1 11/26/1
f 7/7/6 48/187/6 47/28/6
f 89/30/5 28/131/5 58/31/5
f 68/33/1 16/98/1 13/34/1
f 37/36/5 40/95/5 14/37/5
f 15/39/3 13/150/3 39/40/3
f 17/42/3 19/102/3 73/43/3
f 74/45/5 20/103/5 17/46/5
f 41/48/1 44/101/1 18/49/1
f 22/51/5 55/171/5 59/52/5
f 32/54/1 24/126/1 21/55/1
f 83/57/1 24/126/1 56/58/1
f 82/60/5 80/174/5 22/61/5
f 23/63/3 21/188/3 79/64/3
f 36/66/5 28/131/5 25/67/5
f 25/69/3 27/189/3 35/70/3
f 88/72/1 86/182/1 26/73/1
f 18/75/1 53/100/1 78/76/1
f 12/78/5 42/134/5 65/79/5
f 3/81/1 32/54/1 29/56/1
f 23/83/5 22/51/5 30/53/5
f 31/12/3 29/11/3 21/84/3
f 33/71/3 35/70/3 8/86/3
f 5/88/5 36/66/5 33/68/5
f 27/90/1 26/1/1 34/3/1
f 14/91/5 51/144/5 72/92/5
f 37/41/3 39/40/3 11/94/3
f 9/20/5 12/185/5 40/95/5
f 1/13/7 45/121/7 46/96/7
f 16/98/1 38/25/1 39/27/1
f 44/99/1 66/141/1 53/100/1
f 11/26/1 10/186/1 44/101/1
f 43/24/3 41/23/3 19/102/3
f 20/103/5 42/19/5 43/21/5
f 47/28/8 48/187/8 61/104/8
f 50/106/9 49/190/9 63/107/9
f 51/109/10 52/123/10 71/110/10
f 54/112/11 53/158/11 66/113/11
f 55/115/12 56/172/12 60/116/12
f 58/118/13 57/122/13 87/119/13
f 59/117/14 60/116/14 46/96/14
f 62/105/15 61/104/15 57/122/15
f 64/108/16 63/107/16 52/123/16
f 65/114/17 66/113/17 49/124/17
f 24/126/1 32/54/1 60/127/1
f 38/128/1 16/153/1 52/129/1
f 28/131/5 36/66/5 62/132/5
f 30/53/5 59/52/5 45/133/5
f 42/134/5 20/167/5 54/135/5
f 32/54/1 3/81/1 46/136/1
f 36/66/5 5/88/5 47/137/5
f 12/78/5 50/80/5 64/138/5
f 10/140/1 49/142/1 66/141/1
f 10/140/1 38/128/1 63/130/1
f 34/3/1 61/2/1 48/143/1
f 40/139/5 64/138/5 51/144/5
f 72/111/10 71/110/10 84/145/10
f 70/93/5 72/92/5 81/147/5
f 67/149/3 69/173/3 13/150/3
f 15/38/5 14/37/5 70/151/5
f 16/153/1 68/175/1 71/154/1
f 83/155/1 68/33/1 69/35/1
f 77/157/13 78/181/13 53/158/13
f 76/77/1 78/76/1 87/159/1
f 19/50/1 18/49/1 76/161/1
f 89/163/5 74/45/5 75/47/5
f 75/44/3 73/43/3 88/165/3
f 20/167/5 74/183/5 77/168/5
f 24/169/1 83/155/1 79/156/1
f 80/148/5 81/147/5 55/171/5
f 81/146/10 84/145/10 56/172/10
f 82/65/3 79/64/3 69/173/3
f 67/152/5 70/151/5 80/174/5
f 68/175/1 83/57/1 84/59/1
f 85/166/3 88/165/3 27/176/3
f 28/178/5 89/163/5 85/164/5
f 86/160/1 87/159/1 57/180/1
f 90/120/13 87/119/13 78/181/13
f 73/162/1 76/161/1 86/182/1
f 74/183/5 89/30/5 90/32/5
