# Blender v3.3.1 OBJ File: ''
# www.blender.org
mtllib botton.mtl
o button_円柱.001
v 0.000000 0.065308 0.801006
v 0.000000 0.454480 0.801006
v -0.156269 0.065308 0.785615
v -0.156269 0.454480 0.785615
v -0.306532 0.065308 0.740033
v -0.306532 0.454480 0.740033
v -0.445015 0.065308 0.666012
v -0.445015 0.454480 0.666012
v -0.566397 0.065308 0.566397
v -0.566397 0.454480 0.566397
v -0.666012 0.065308 0.445015
v -0.666012 0.454480 0.445015
v -0.740033 0.065308 0.306532
v -0.740033 0.454480 0.306532
v -0.785615 0.065308 0.156269
v -0.785615 0.454480 0.156269
v -0.801006 0.065308 0.000000
v -0.801006 0.454480 0.000000
v -0.785615 0.065308 -0.156269
v -0.785615 0.454480 -0.156269
v -0.740033 0.065308 -0.306532
v -0.740033 0.454480 -0.306532
v -0.666012 0.065308 -0.445015
v -0.666012 0.454480 -0.445015
v -0.566397 0.065308 -0.566397
v -0.566397 0.454480 -0.566397
v -0.445015 0.065308 -0.666012
v -0.445015 0.454480 -0.666012
v -0.306532 0.065308 -0.740033
v -0.306532 0.454480 -0.740033
v -0.156269 0.065308 -0.785615
v -0.156269 0.454480 -0.785615
v 0.000000 0.065308 -0.801006
v 0.000000 0.454480 -0.801006
v 0.156269 0.065308 -0.785615
v 0.156269 0.454480 -0.785615
v 0.306532 0.065308 -0.740033
v 0.306532 0.454480 -0.740033
v 0.445015 0.065308 -0.666012
v 0.445015 0.454480 -0.666012
v 0.566397 0.065308 -0.566397
v 0.566397 0.454480 -0.566397
v 0.666012 0.065308 -0.445015
v 0.666012 0.454480 -0.445015
v 0.740033 0.065308 -0.306532
v 0.740033 0.454480 -0.306532
v 0.785615 0.065308 -0.156269
v 0.785615 0.454480 -0.156269
v 0.801006 0.065308 0.000000
v 0.801006 0.454480 0.000000
v 0.785615 0.065308 0.156269
v 0.785615 0.454480 0.156269
v 0.740033 0.065308 0.306532
v 0.740033 0.454480 0.306532
v 0.666012 0.065308 0.445015
v 0.666012 0.454480 0.445015
v 0.566397 0.065308 0.566397
v 0.566397 0.454480 0.566397
v 0.445015 0.065308 0.666012
v 0.445015 0.454480 0.666012
v 0.306532 0.065308 0.740033
v 0.306532 0.454480 0.740033
v 0.156269 0.065308 0.785615
v 0.156269 0.454480 0.785615
v 0.000000 0.012340 1.000000
v 0.000000 0.240335 1.000000
v -0.195090 0.012340 0.980785
v -0.195090 0.240335 0.980785
v -0.382683 0.012340 0.923880
v -0.382683 0.240335 0.923880
v -0.555570 0.012340 0.831470
v -0.555570 0.240335 0.831470
v -0.707107 0.012340 0.707107
v -0.707107 0.240335 0.707107
v -0.831470 0.012340 0.555570
v -0.831470 0.240335 0.555570
v -0.923880 0.012340 0.382683
v -0.923880 0.240335 0.382683
v -0.980785 0.012340 0.195090
v -0.980785 0.240335 0.195090
v -1.000000 0.012340 0.000000
v -1.000000 0.240335 0.000000
v -0.980785 0.012340 -0.195090
v -0.980785 0.240335 -0.195090
v -0.923880 0.012340 -0.382683
v -0.923880 0.240335 -0.382683
v -0.831470 0.012340 -0.555570
v -0.831470 0.240335 -0.555570
v -0.707107 0.012340 -0.707107
v -0.707107 0.240335 -0.707107
v -0.555570 0.012340 -0.831470
v -0.555570 0.240335 -0.831470
v -0.382683 0.012340 -0.923880
v -0.382683 0.240335 -0.923880
v -0.195090 0.012340 -0.980785
v -0.195090 0.240335 -0.980785
v 0.000000 0.012340 -1.000000
v 0.000000 0.240335 -1.000000
v 0.195090 0.012340 -0.980785
v 0.195090 0.240335 -0.980785
v 0.382683 0.012340 -0.923880
v 0.382683 0.240335 -0.923880
v 0.555570 0.012340 -0.831470
v 0.555570 0.240335 -0.831470
v 0.707107 0.012340 -0.707107
v 0.707107 0.240335 -0.707107
v 0.831470 0.012340 -0.555570
v 0.831470 0.240335 -0.555570
v 0.923880 0.012340 -0.382683
v 0.923880 0.240335 -0.382683
v 0.980785 0.012340 -0.195090
v 0.980785 0.240335 -0.195090
v 1.000000 0.012340 0.000000
v 1.000000 0.240335 0.000000
v 0.980785 0.012340 0.195090
v 0.980785 0.240335 0.195090
v 0.923880 0.012340 0.382683
v 0.923880 0.240335 0.382683
v 0.831470 0.012340 0.555570
v 0.831470 0.240335 0.555570
v 0.707107 0.012340 0.707107
v 0.707107 0.240335 0.707107
v 0.555570 0.012340 0.831470
v 0.555570 0.240335 0.831470
v 0.382683 0.012340 0.923880
v 0.382683 0.240335 0.923880
v 0.195090 0.012340 0.980785
v 0.195090 0.240335 0.980785
vt 0.849266 0.487193
vt 0.901464 0.466537
vt 0.901464 0.487193
vt 0.849266 0.466537
vt 0.901464 0.447079
vt 0.849266 0.447079
vt 0.901464 0.429568
vt 0.849266 0.429568
vt 0.901464 0.414675
vt 0.849266 0.414675
vt 0.901464 0.397164
vt 0.849266 0.397164
vt 0.901464 0.377706
vt 0.849266 0.377706
vt 0.901464 0.357049
vt 0.849266 0.357049
vt 0.901464 0.335988
vt 0.849266 0.335988
vt 0.901464 0.315332
vt 0.849266 0.315332
vt 0.901464 0.295874
vt 0.849266 0.295874
vt 0.901464 0.278363
vt 0.849266 0.278363
vt 0.901464 0.263470
vt 0.635430 0.785573
vt 0.687628 0.770348
vt 0.687628 0.785573
vt 0.635430 0.770348
vt 0.687628 0.752577
vt 0.635430 0.752577
vt 0.687628 0.732942
vt 0.635430 0.732942
vt 0.687628 0.712198
vt 0.635430 0.712198
vt 0.687628 0.691142
vt 0.646980 0.857624
vt 0.628412 0.560547
vt 0.646980 0.560547
vt 0.724142 0.743340
vt 0.704871 0.691142
vt 0.724142 0.691142
vt 0.704871 0.743340
vt 0.687628 0.691142
vt 0.849266 0.717085
vt 0.901464 0.699573
vt 0.901464 0.717085
vt 0.849266 0.699573
vt 0.901464 0.680116
vt 0.849266 0.680116
vt 0.901464 0.659459
vt 0.849266 0.659459
vt 0.901464 0.638398
vt 0.849266 0.638398
vt 0.901464 0.617742
vt 0.849266 0.617742
vt 0.901464 0.598284
vt 0.849266 0.598284
vt 0.901464 0.580772
vt 0.849266 0.580772
vt 0.901464 0.565880
vt 0.849266 0.565880
vt 0.901464 0.548368
vt 0.849266 0.548368
vt 0.901464 0.528911
vt 0.845157 0.553037
vt 0.773535 0.687033
vt 0.639539 0.615411
vt 0.849266 0.528911
vt 0.901464 0.508254
vt 0.849266 0.508254
vt 0.849266 0.359858
vt 0.752878 0.477306
vt 0.635430 0.380919
vt 0.416276 0.675189
vt 0.447703 0.647822
vt 0.447703 0.675189
vt 0.416276 0.647822
vt 0.447703 0.622043
vt 0.416276 0.622043
vt 0.447703 0.598843
vt 0.447703 0.178069
vt 0.416276 0.197799
vt 0.416276 0.178069
vt 0.447703 0.197799
vt 0.416276 0.220999
vt 0.447703 0.220999
vt 0.416276 0.246778
vt 0.447703 0.246778
vt 0.416276 0.274145
vt 0.447703 0.274145
vt 0.416276 0.302048
vt 0.447703 0.302048
vt 0.416276 0.329414
vt 0.447703 0.329414
vt 0.416276 0.355193
vt 0.447703 0.355193
vt 0.416276 0.378394
vt 0.447703 0.378394
vt 0.416276 0.398124
vt 0.416276 0.598843
vt 0.447703 0.578672
vt 0.447703 0.598843
vt 0.416276 0.578672
vt 0.447703 0.555128
vt 0.416276 0.555128
vt 0.447703 0.529114
vt 0.416276 0.529114
vt 0.447703 0.501632
vt 0.416276 0.501632
vt 0.447703 0.473736
vt 0.416276 0.473736
vt 0.447703 0.446499
vt 0.416276 0.446499
vt 0.447703 0.420968
vt 0.416276 0.420968
vt 0.447703 0.398124
vt 0.479129 0.178069
vt 0.447703 0.201269
vt 0.447703 0.178069
vt 0.479129 0.201269
vt 0.447703 0.227048
vt 0.479129 0.227048
vt 0.447703 0.254415
vt 0.479129 0.254415
vt 0.447703 0.282317
vt 0.479129 0.282317
vt 0.447703 0.309684
vt 0.479129 0.309684
vt 0.447703 0.335463
vt 0.479129 0.335463
vt 0.447703 0.358663
vt 0.416276 0.799168
vt 0.447703 0.779437
vt 0.447703 0.799168
vt 0.416276 0.779437
vt 0.447703 0.756237
vt 0.416276 0.756237
vt 0.447703 0.730458
vt 0.321662 0.235083
vt 0.340769 0.435408
vt 0.146774 0.455138
vt 0.416276 0.730458
vt 0.447703 0.703092
vt 0.416276 0.703092
vt 0.220707 0.770063
vt 0.127667 0.718709
vt 0.340769 0.538115
vt 0.849266 0.263470
vt 0.635430 0.691142
vt 0.628412 0.857624
vt 0.687628 0.743340
vt 0.635430 0.594755
vt 0.635430 0.573694
vt 0.639539 0.553037
vt 0.647598 0.533580
vt 0.659299 0.516068
vt 0.674192 0.501176
vt 0.691703 0.489475
vt 0.711161 0.481415
vt 0.731817 0.477306
vt 0.752878 0.477306
vt 0.773535 0.481415
vt 0.792992 0.489475
vt 0.810504 0.501176
vt 0.825396 0.516068
vt 0.837097 0.533580
vt 0.849266 0.573694
vt 0.837097 0.634869
vt 0.849266 0.594755
vt 0.845157 0.615411
vt 0.825396 0.652381
vt 0.810504 0.667273
vt 0.792992 0.678974
vt 0.752878 0.691142
vt 0.691703 0.678974
vt 0.731817 0.691142
vt 0.711161 0.687033
vt 0.674191 0.667273
vt 0.659299 0.652380
vt 0.647598 0.634869
vt 0.635430 0.359858
vt 0.639539 0.339201
vt 0.647598 0.319744
vt 0.659299 0.302232
vt 0.674192 0.287340
vt 0.691703 0.275639
vt 0.711161 0.267579
vt 0.731817 0.263470
vt 0.752878 0.263470
vt 0.773535 0.267579
vt 0.792992 0.275639
vt 0.810504 0.287340
vt 0.825396 0.302232
vt 0.837097 0.319744
vt 0.845157 0.339201
vt 0.849266 0.380919
vt 0.845157 0.401575
vt 0.837097 0.421033
vt 0.825396 0.438545
vt 0.810504 0.453437
vt 0.792992 0.465138
vt 0.773535 0.473197
vt 0.731817 0.477306
vt 0.711161 0.473197
vt 0.691703 0.465138
vt 0.674191 0.453437
vt 0.659299 0.438544
vt 0.647598 0.421033
vt 0.639539 0.401575
vt 0.416276 0.598843
vt 0.447703 0.398124
vt 0.416276 0.398124
vt 0.479129 0.358663
vt 0.127667 0.435408
vt 0.112655 0.412207
vt 0.102314 0.386428
vt 0.097043 0.359062
vt 0.097043 0.331159
vt 0.102314 0.303792
vt 0.112655 0.278014
vt 0.127667 0.254813
vt 0.146774 0.235083
vt 0.169241 0.219581
vt 0.194205 0.208903
vt 0.220707 0.203459
vt 0.247728 0.203459
vt 0.274230 0.208903
vt 0.299195 0.219581
vt 0.340769 0.254813
vt 0.371393 0.331159
vt 0.355781 0.278014
vt 0.366121 0.303792
vt 0.371393 0.359062
vt 0.366121 0.386429
vt 0.355781 0.412207
vt 0.321662 0.455138
vt 0.247728 0.486761
vt 0.299195 0.470640
vt 0.274230 0.481318
vt 0.220707 0.486761
vt 0.194205 0.481318
vt 0.169241 0.470640
vt 0.112655 0.695509
vt 0.102314 0.669730
vt 0.097043 0.642364
vt 0.097043 0.614461
vt 0.102314 0.587094
vt 0.146774 0.518385
vt 0.112655 0.561315
vt 0.127667 0.538115
vt 0.169241 0.502883
vt 0.194205 0.492205
vt 0.220707 0.486761
vt 0.247728 0.486761
vt 0.274230 0.492205
vt 0.299195 0.502883
vt 0.321662 0.518385
vt 0.355781 0.561315
vt 0.366121 0.587094
vt 0.371393 0.614461
vt 0.371393 0.642364
vt 0.366121 0.669730
vt 0.321662 0.738440
vt 0.355781 0.695509
vt 0.340769 0.718710
vt 0.299195 0.753942
vt 0.274230 0.764620
vt 0.247728 0.770063
vt 0.194205 0.764620
vt 0.169241 0.753942
vt 0.146774 0.738440
vn -0.0980 0.0000 0.9952
vn -0.2903 0.0000 0.9569
vn -0.4714 0.0000 0.8819
vn -0.6344 0.0000 0.7730
vn -0.7730 0.0000 0.6344
vn -0.8819 0.0000 0.4714
vn -0.9569 0.0000 0.2903
vn -0.9952 0.0000 0.0980
vn -0.9952 0.0000 -0.0980
vn -0.9569 0.0000 -0.2903
vn -0.8819 0.0000 -0.4714
vn -0.7730 0.0000 -0.6344
vn -0.6344 0.0000 -0.7730
vn -0.4714 0.0000 -0.8819
vn -0.2903 0.0000 -0.9569
vn -0.0980 0.0000 -0.9952
vn 0.0980 0.0000 -0.9952
vn 0.2903 0.0000 -0.9569
vn 0.4714 0.0000 -0.8819
vn 0.6344 0.0000 -0.7730
vn 0.7730 0.0000 -0.6344
vn 0.8819 0.0000 -0.4714
vn 0.9569 0.0000 -0.2903
vn 0.9952 0.0000 -0.0980
vn 0.9952 0.0000 0.0980
vn 0.9569 0.0000 0.2903
vn 0.8819 0.0000 0.4714
vn 0.7730 0.0000 0.6344
vn 0.6344 0.0000 0.7730
vn 0.4714 0.0000 0.8819
vn 0.0000 1.0000 -0.0000
vn 0.2903 0.0000 0.9569
vn 0.0980 0.0000 0.9952
vn 0.0000 -1.0000 -0.0000
usemtl マテリアル
s off
f 2/1/1 3/2/1 1/3/1
f 4/4/2 5/5/2 3/2/2
f 6/6/3 7/7/3 5/5/3
f 8/8/4 9/9/4 7/7/4
f 10/10/5 11/11/5 9/9/5
f 12/12/6 13/13/6 11/11/6
f 14/14/7 15/15/7 13/13/7
f 16/16/8 17/17/8 15/15/8
f 18/18/9 19/19/9 17/17/9
f 20/20/10 21/21/10 19/19/10
f 22/22/11 23/23/11 21/21/11
f 24/24/12 25/25/12 23/23/12
f 26/26/13 27/27/13 25/28/13
f 28/29/14 29/30/14 27/27/14
f 30/31/15 31/32/15 29/30/15
f 32/33/16 33/34/16 31/32/16
f 34/35/17 35/36/17 33/34/17
f 36/37/18 37/38/18 35/39/18
f 38/40/19 39/41/19 37/42/19
f 40/43/20 41/44/20 39/41/20
f 42/45/21 43/46/21 41/47/21
f 44/48/22 45/49/22 43/46/22
f 46/50/23 47/51/23 45/49/23
f 48/52/24 49/53/24 47/51/24
f 50/54/25 51/55/25 49/53/25
f 52/56/26 53/57/26 51/55/26
f 54/58/27 55/59/27 53/57/27
f 56/60/28 57/61/28 55/59/28
f 58/62/29 59/63/29 57/61/29
f 60/64/30 61/65/30 59/63/30
f 38/66/31 22/67/31 6/68/31
f 62/69/32 63/70/32 61/65/32
f 64/71/33 1/3/33 63/70/33
f 31/72/34 47/73/34 63/74/34
f 66/75/1 67/76/1 65/77/1
f 68/78/2 69/79/2 67/76/2
f 70/80/3 71/81/3 69/79/3
f 72/82/4 73/83/4 71/84/4
f 74/85/5 75/86/5 73/83/5
f 76/87/6 77/88/6 75/86/6
f 78/89/7 79/90/7 77/88/7
f 80/91/8 81/92/8 79/90/8
f 82/93/9 83/94/9 81/92/9
f 84/95/10 85/96/10 83/94/10
f 86/97/11 87/98/11 85/96/11
f 88/99/12 89/100/12 87/98/12
f 90/101/13 91/102/13 89/103/13
f 92/104/14 93/105/14 91/102/14
f 94/106/15 95/107/15 93/105/15
f 96/108/16 97/109/16 95/107/16
f 98/110/17 99/111/17 97/109/17
f 100/112/18 101/113/18 99/111/18
f 102/114/19 103/115/19 101/113/19
f 104/116/20 105/117/20 103/115/20
f 106/118/21 107/119/21 105/120/21
f 108/121/22 109/122/22 107/119/22
f 110/123/23 111/124/23 109/122/23
f 112/125/24 113/126/24 111/124/24
f 114/127/25 115/128/25 113/126/25
f 116/129/26 117/130/26 115/128/26
f 118/131/27 119/132/27 117/130/27
f 120/133/28 121/134/28 119/135/28
f 122/136/29 123/137/29 121/134/29
f 124/138/30 125/139/30 123/137/30
f 102/140/31 86/141/31 70/142/31
f 126/143/32 127/144/32 125/139/32
f 128/145/33 65/77/33 127/144/33
f 119/146/34 127/147/34 95/148/34
f 2/1/1 4/4/1 3/2/1
f 4/4/2 6/6/2 5/5/2
f 6/6/3 8/8/3 7/7/3
f 8/8/4 10/10/4 9/9/4
f 10/10/5 12/12/5 11/11/5
f 12/12/6 14/14/6 13/13/6
f 14/14/7 16/16/7 15/15/7
f 16/16/8 18/18/8 17/17/8
f 18/18/9 20/20/9 19/19/9
f 20/20/10 22/22/10 21/21/10
f 22/22/11 24/24/11 23/23/11
f 24/24/12 26/149/12 25/25/12
f 26/26/13 28/29/13 27/27/13
f 28/29/14 30/31/14 29/30/14
f 30/31/15 32/33/15 31/32/15
f 32/33/16 34/35/16 33/34/16
f 34/35/17 36/150/17 35/36/17
f 36/37/18 38/151/18 37/38/18
f 38/40/19 40/43/19 39/41/19
f 40/43/20 42/152/20 41/44/20
f 42/45/21 44/48/21 43/46/21
f 44/48/22 46/50/22 45/49/22
f 46/50/23 48/52/23 47/51/23
f 48/52/24 50/54/24 49/53/24
f 50/54/25 52/56/25 51/55/25
f 52/56/26 54/58/26 53/57/26
f 54/58/27 56/60/27 55/59/27
f 56/60/28 58/62/28 57/61/28
f 58/62/29 60/64/29 59/63/29
f 60/64/30 62/69/30 61/65/30
f 6/68/31 4/153/31 2/154/31
f 2/154/31 64/155/31 6/68/31
f 64/155/31 62/156/31 6/68/31
f 62/156/31 60/157/31 58/158/31
f 58/158/31 56/159/31 54/160/31
f 54/160/31 52/161/31 50/162/31
f 50/162/31 48/163/31 54/160/31
f 48/163/31 46/164/31 54/160/31
f 46/164/31 44/165/31 42/166/31
f 42/166/31 40/167/31 38/66/31
f 38/66/31 36/168/31 30/169/31
f 36/168/31 34/170/31 30/169/31
f 34/170/31 32/171/31 30/169/31
f 30/169/31 28/172/31 26/173/31
f 26/173/31 24/174/31 22/67/31
f 22/67/31 20/175/31 14/176/31
f 20/175/31 18/177/31 14/176/31
f 18/177/31 16/178/31 14/176/31
f 14/176/31 12/179/31 10/180/31
f 10/180/31 8/181/31 6/68/31
f 62/156/31 58/158/31 6/68/31
f 58/158/31 54/160/31 6/68/31
f 46/164/31 42/166/31 54/160/31
f 42/166/31 38/66/31 54/160/31
f 30/169/31 26/173/31 38/66/31
f 26/173/31 22/67/31 38/66/31
f 14/176/31 10/180/31 22/67/31
f 10/180/31 6/68/31 22/67/31
f 6/68/31 54/160/31 38/66/31
f 62/69/32 64/71/32 63/70/32
f 64/71/33 2/1/33 1/3/33
f 63/74/34 1/182/34 3/183/34
f 3/183/34 5/184/34 7/185/34
f 7/185/34 9/186/34 11/187/34
f 11/187/34 13/188/34 15/189/34
f 15/189/34 17/190/34 19/191/34
f 19/191/34 21/192/34 23/193/34
f 23/193/34 25/194/34 27/195/34
f 27/195/34 29/196/34 31/72/34
f 31/72/34 33/197/34 35/198/34
f 35/198/34 37/199/34 39/200/34
f 39/200/34 41/201/34 43/202/34
f 43/202/34 45/203/34 47/73/34
f 47/73/34 49/204/34 51/205/34
f 51/205/34 53/206/34 55/207/34
f 55/207/34 57/208/34 59/209/34
f 59/209/34 61/210/34 63/74/34
f 63/74/34 3/183/34 15/189/34
f 3/183/34 7/185/34 15/189/34
f 7/185/34 11/187/34 15/189/34
f 15/189/34 19/191/34 31/72/34
f 19/191/34 23/193/34 31/72/34
f 23/193/34 27/195/34 31/72/34
f 31/72/34 35/198/34 47/73/34
f 35/198/34 39/200/34 47/73/34
f 39/200/34 43/202/34 47/73/34
f 47/73/34 51/205/34 63/74/34
f 51/205/34 55/207/34 63/74/34
f 55/207/34 59/209/34 63/74/34
f 63/74/34 15/189/34 31/72/34
f 66/75/1 68/78/1 67/76/1
f 68/78/2 70/80/2 69/79/2
f 70/80/3 72/211/3 71/81/3
f 72/82/4 74/85/4 73/83/4
f 74/85/5 76/87/5 75/86/5
f 76/87/6 78/89/6 77/88/6
f 78/89/7 80/91/7 79/90/7
f 80/91/8 82/93/8 81/92/8
f 82/93/9 84/95/9 83/94/9
f 84/95/10 86/97/10 85/96/10
f 86/97/11 88/99/11 87/98/11
f 88/99/12 90/212/12 89/100/12
f 90/101/13 92/104/13 91/102/13
f 92/104/14 94/106/14 93/105/14
f 94/106/15 96/108/15 95/107/15
f 96/108/16 98/110/16 97/109/16
f 98/110/17 100/112/17 99/111/17
f 100/112/18 102/114/18 101/113/18
f 102/114/19 104/116/19 103/115/19
f 104/116/20 106/213/20 105/117/20
f 106/118/21 108/121/21 107/119/21
f 108/121/22 110/123/22 109/122/22
f 110/123/23 112/125/23 111/124/23
f 112/125/24 114/127/24 113/126/24
f 114/127/25 116/129/25 115/128/25
f 116/129/26 118/131/26 117/130/26
f 118/131/27 120/214/27 119/132/27
f 120/133/28 122/136/28 121/134/28
f 122/136/29 124/138/29 123/137/29
f 124/138/30 126/143/30 125/139/30
f 70/142/31 68/215/31 66/216/31
f 66/216/31 128/217/31 70/142/31
f 128/217/31 126/218/31 70/142/31
f 126/218/31 124/219/31 122/220/31
f 122/220/31 120/221/31 118/222/31
f 118/222/31 116/223/31 114/224/31
f 114/224/31 112/225/31 118/222/31
f 112/225/31 110/226/31 118/222/31
f 110/226/31 108/227/31 106/228/31
f 106/228/31 104/229/31 102/140/31
f 102/140/31 100/230/31 94/231/31
f 100/230/31 98/232/31 94/231/31
f 98/232/31 96/233/31 94/231/31
f 94/231/31 92/234/31 90/235/31
f 90/235/31 88/236/31 86/141/31
f 86/141/31 84/237/31 78/238/31
f 84/237/31 82/239/31 78/238/31
f 82/239/31 80/240/31 78/238/31
f 78/238/31 76/241/31 74/242/31
f 74/242/31 72/243/31 70/142/31
f 126/218/31 122/220/31 70/142/31
f 122/220/31 118/222/31 70/142/31
f 110/226/31 106/228/31 118/222/31
f 106/228/31 102/140/31 118/222/31
f 94/231/31 90/235/31 102/140/31
f 90/235/31 86/141/31 102/140/31
f 78/238/31 74/242/31 86/141/31
f 74/242/31 70/142/31 86/141/31
f 70/142/31 118/222/31 102/140/31
f 126/143/32 128/145/32 127/144/32
f 128/145/33 66/75/33 65/77/33
f 127/147/34 65/244/34 67/245/34
f 67/245/34 69/246/34 71/247/34
f 71/247/34 73/248/34 79/249/34
f 73/248/34 75/250/34 79/249/34
f 75/250/34 77/251/34 79/249/34
f 79/249/34 81/252/34 83/253/34
f 83/253/34 85/254/34 79/249/34
f 85/254/34 87/255/34 79/249/34
f 87/255/34 89/256/34 95/148/34
f 89/256/34 91/257/34 95/148/34
f 91/257/34 93/258/34 95/148/34
f 95/148/34 97/259/34 99/260/34
f 99/260/34 101/261/34 103/262/34
f 103/262/34 105/263/34 111/264/34
f 105/263/34 107/265/34 111/264/34
f 107/265/34 109/266/34 111/264/34
f 111/264/34 113/267/34 115/268/34
f 115/268/34 117/269/34 111/264/34
f 117/269/34 119/146/34 111/264/34
f 119/146/34 121/270/34 127/147/34
f 121/270/34 123/271/34 127/147/34
f 123/271/34 125/272/34 127/147/34
f 127/147/34 67/245/34 79/249/34
f 67/245/34 71/247/34 79/249/34
f 95/148/34 99/260/34 111/264/34
f 99/260/34 103/262/34 111/264/34
f 79/249/34 87/255/34 127/147/34
f 87/255/34 95/148/34 127/147/34
f 111/264/34 119/146/34 95/148/34
