# Blender v3.3.1 OBJ File: 'player.blend'
# www.blender.org
mtllib player_legR.mtl
o LegR_立方体.003
v 0.100003 -1.843605 0.402757
v 0.100003 -1.446384 0.402757
v 0.100003 -1.843605 -1.060779
v 0.100003 -1.446384 -1.060779
v 0.899873 -1.843605 0.402757
v 0.899873 -1.446384 0.402757
v 0.899874 -1.843605 -1.060779
v 0.899874 -1.446384 -1.060779
v 0.199864 -1.843605 -1.060779
v 0.199864 -1.446384 -1.060779
v 0.199864 -1.843605 0.402757
v 0.199864 -1.446384 0.402757
v 0.800138 -1.446384 -1.060779
v 0.800138 -1.843605 0.402757
v 0.800138 -1.843605 -1.060779
v 0.800138 -1.446384 0.402757
v 0.100003 -1.548326 0.402757
v 0.100003 -1.548326 -1.060779
v 0.899874 -1.548326 -1.060779
v 0.899873 -1.548326 0.402757
v 0.199864 -1.548326 0.402757
v 0.199864 -1.548326 -1.060779
v 0.800138 -1.548326 0.402757
v 0.800138 -1.548326 -1.060779
v 0.100003 -1.748112 -1.060779
v 0.899874 -1.748112 -1.060779
v 0.899873 -1.748112 0.402757
v 0.199864 -1.748112 0.402757
v 0.199864 -1.748112 -1.060779
v 0.800138 -1.748112 0.402757
v 0.800138 -1.748112 -1.060779
v 0.100003 -1.748112 0.402757
v 0.100003 -1.843605 0.298746
v 0.100003 -1.446384 0.298746
v 0.899873 -1.843605 0.298746
v 0.899873 -1.446384 0.298746
v 0.199864 -1.446384 0.298746
v 0.199864 -1.843605 0.298746
v 0.800138 -1.446384 0.298746
v 0.800138 -1.843605 0.298746
v 0.899873 -1.548326 0.298746
v 0.100003 -1.548326 0.298746
v 0.100003 -1.748112 0.298746
v 0.899873 -1.748112 0.298746
v 0.100003 -1.446384 -0.961690
v 0.899874 -1.843605 -0.961690
v 0.100003 -1.548326 -0.961690
v 0.100003 -1.748112 -0.961690
v 0.100003 -1.843605 -0.961690
v 0.899874 -1.446384 -0.961690
v 0.199864 -1.446384 -0.961690
v 0.199864 -1.843605 -0.961690
v 0.800138 -1.446384 -0.961690
v 0.800138 -1.843605 -0.961690
v 0.899874 -1.548326 -0.961690
v 0.899874 -1.748112 -0.961690
v 0.100003 -1.843605 -0.401806
v 0.899874 -1.446384 -0.401806
v 0.199864 -1.446384 -0.401806
v 0.199864 -1.843605 -0.401806
v 0.800138 -1.446384 -0.401806
v 0.800138 -1.843605 -0.401806
v 0.899874 -1.548326 -0.401806
v 0.899874 -1.748112 -0.401806
v 0.100003 -1.446384 -0.401806
v 0.899874 -1.843605 -0.401806
v 0.100003 -1.548326 -0.401806
v 0.100003 -1.748112 -0.401806
v 0.100003 -1.843605 -0.301764
v 0.899874 -1.446384 -0.301764
v 0.199864 -1.446384 -0.301764
v 0.199864 -1.843605 -0.301764
v 0.800138 -1.446384 -0.301764
v 0.800138 -1.843605 -0.301764
v 0.899874 -1.548326 -0.301764
v 0.899874 -1.748112 -0.301764
v 0.100003 -1.446384 -0.301764
v 0.899874 -1.843605 -0.301764
v 0.100003 -1.548326 -0.301764
v 0.100003 -1.748112 -0.301764
v 0.300463 -1.843605 -1.060779
v 0.300463 -1.446384 0.402757
v 0.300463 -1.446384 -1.060779
v 0.300463 -1.843605 0.402757
v 0.300463 -1.548326 -1.060779
v 0.300463 -1.548326 0.402757
v 0.300463 -1.748112 0.402757
v 0.300463 -1.748112 -1.060779
v 0.300463 -1.843605 0.298746
v 0.300463 -1.446384 0.298746
v 0.300463 -1.446384 -0.961690
v 0.300463 -1.843605 -0.961690
v 0.300463 -1.446384 -0.401806
v 0.300463 -1.843605 -0.401806
v 0.300463 -1.446384 -0.301764
v 0.300463 -1.843605 -0.301764
v 0.700544 -1.446384 -1.060779
v 0.700544 -1.843605 0.402757
v 0.700544 -1.548326 -1.060779
v 0.700544 -1.748112 -1.060779
v 0.700544 -1.446384 0.298746
v 0.700544 -1.446384 -0.961690
v 0.700544 -1.446384 -0.401806
v 0.700544 -1.446384 -0.301764
v 0.700544 -1.843605 -1.060779
v 0.700544 -1.446384 0.402757
v 0.700544 -1.548326 0.402757
v 0.700544 -1.748112 0.402757
v 0.700544 -1.843605 0.298746
v 0.700544 -1.843605 -0.961690
v 0.700544 -1.843605 -0.401806
v 0.700544 -1.843605 -0.301764
v 0.199864 -1.046663 -0.301764
v 0.199864 -1.046663 0.298746
v 0.800138 -1.046663 -0.301764
v 0.800138 -1.046663 0.298746
v 0.700544 -1.046663 0.298746
v 0.700544 -1.046663 -0.301764
v 0.300463 -1.046663 0.298746
v 0.300463 -1.046663 -0.301764
v 0.700544 -1.145043 -0.301764
v 0.300463 -1.145043 -0.301764
v 0.800138 -1.145043 0.298746
v 0.700544 -1.145043 0.298746
v 0.300463 -1.145043 0.298746
v 0.199864 -1.145043 0.298746
v 0.800138 -1.145043 -0.301764
v 0.199864 -1.145043 -0.301764
v 0.100003 -1.843605 0.198205
v 0.899873 -1.446384 0.198205
v 0.199864 -1.446384 0.198205
v 0.199864 -1.843605 0.198205
v 0.800138 -1.446384 0.198205
v 0.800138 -1.843605 0.198205
v 0.899873 -1.548326 0.198205
v 0.899873 -1.748112 0.198205
v 0.100003 -1.446384 0.198205
v 0.899873 -1.843605 0.198205
v 0.100003 -1.548326 0.198205
v 0.100003 -1.748112 0.198205
v 0.300463 -1.843605 0.198205
v 0.700544 -1.843605 0.198205
v 0.199864 -1.046663 0.198205
v 0.800138 -1.046663 0.198205
v 0.300463 -1.046663 0.198205
v 0.700544 -1.046663 0.198205
v 0.199864 -1.145043 0.198205
v 0.800138 -1.145043 0.198205
v 0.100003 -1.446384 -0.201690
v 0.899874 -1.843605 -0.201690
v 0.100003 -1.548326 -0.201690
v 0.100003 -1.748112 -0.201690
v 0.199864 -1.145043 -0.201690
v 0.100003 -1.843605 -0.201690
v 0.899874 -1.446384 -0.201690
v 0.199864 -1.446384 -0.201690
v 0.199864 -1.843605 -0.201690
v 0.800138 -1.446384 -0.201690
v 0.800138 -1.843605 -0.201690
v 0.899874 -1.548326 -0.201690
v 0.899874 -1.748112 -0.201690
v 0.300463 -1.843605 -0.201690
v 0.700544 -1.843605 -0.201690
v 0.199864 -1.046663 -0.201690
v 0.800138 -1.046663 -0.201690
v 0.300463 -1.046663 -0.201690
v 0.700544 -1.046663 -0.201690
v 0.800138 -1.145043 -0.201690
v 0.700544 -1.343336 -0.301764
v 0.700544 -1.343336 0.298746
v 0.199864 -1.343336 0.298746
v 0.199864 -1.343336 -0.301764
v 0.300463 -1.343336 -0.301764
v 0.800138 -1.343336 0.298746
v 0.300463 -1.343336 0.298746
v 0.800138 -1.343336 -0.301764
v 0.800138 -1.343336 0.198205
v 0.199864 -1.343336 0.198205
v 0.199864 -1.343336 -0.201690
v 0.800138 -1.343336 -0.201690
vt 0.101713 0.864586
vt 0.106232 0.862387
vt 0.106232 0.864586
vt 0.137276 0.831162
vt 0.141795 0.827384
vt 0.141795 0.831162
vt 0.119668 0.832208
vt 0.124187 0.829899
vt 0.124187 0.832208
vt 0.137276 0.801030
vt 0.141795 0.797412
vt 0.141795 0.801030
vt 0.099450 0.860078
vt 0.101713 0.862387
vt 0.099450 0.862387
vt 0.244988 0.827715
vt 0.220471 0.843363
vt 0.220471 0.827715
vt 0.143968 0.843363
vt 0.143968 0.827715
vt 0.085926 0.860078
vt 0.083759 0.862387
vt 0.083759 0.860078
vt 0.137276 0.812317
vt 0.141795 0.812317
vt 0.137276 0.857355
vt 0.141795 0.853737
vt 0.141795 0.857355
vt 0.137276 0.827384
vt 0.141795 0.823605
vt 0.141795 0.827384
vt 0.067465 0.827715
vt 0.041855 0.843363
vt 0.041855 0.827715
vt 0.096069 0.862387
vt 0.096069 0.860078
vt 0.137276 0.836806
vt 0.141795 0.836806
vt 0.656609 0.266994
vt 0.756807 0.228742
vt 0.756807 0.266994
vt 0.150652 0.823605
vt 0.150652 0.827384
vt 0.150652 0.853737
vt 0.150652 0.857355
vt 0.656609 0.101020
vt 0.756807 0.024517
vt 0.756807 0.101020
vt 0.150652 0.797412
vt 0.150652 0.801030
vt 0.133043 0.829899
vt 0.133043 0.832208
vt 0.150652 0.827384
vt 0.150652 0.831162
vt 0.115089 0.862387
vt 0.115089 0.864586
vt 0.119322 0.862387
vt 0.119322 0.864586
vt 0.154885 0.827384
vt 0.154885 0.831162
vt 0.137276 0.829899
vt 0.137276 0.832208
vt 0.154885 0.797412
vt 0.154885 0.801030
vt 0.150652 0.812317
vt 0.154885 0.812317
vt 0.154885 0.853737
vt 0.154885 0.857355
vt 0.154885 0.823605
vt 0.154885 0.827384
vt 0.150652 0.836806
vt 0.154885 0.836806
vt 0.133043 0.835706
vt 0.137276 0.835706
vt 0.115089 0.894874
vt 0.119322 0.892565
vt 0.119322 0.894874
vt 0.106232 0.894874
vt 0.115089 0.892565
vt 0.457392 0.259536
vt 0.557590 0.235833
vt 0.557590 0.259536
vt 0.177523 0.401017
vt 0.139272 0.424721
vt 0.139272 0.401017
vt 0.086023 0.824093
vt 0.083759 0.827591
vt 0.083759 0.824093
vt 0.083759 0.856580
vt 0.143968 0.827715
vt 0.220471 0.827715
vt 0.220471 0.827715
vt 0.101713 0.824093
vt 0.099546 0.827591
vt 0.099546 0.824093
vt 0.101713 0.856580
vt 0.099450 0.856580
vt 0.119668 0.835706
vt 0.124187 0.835706
vt 0.101713 0.894874
vt 0.106232 0.892565
vt 0.119668 0.862387
vt 0.124187 0.860187
vt 0.124187 0.862387
vt 0.101713 0.829899
vt 0.099450 0.832099
vt 0.099450 0.829899
vt 0.101713 0.797412
vt 0.099546 0.799612
vt 0.099546 0.797412
vt 0.092784 0.799612
vt 0.092784 0.797412
vt 0.085926 0.829899
vt 0.083759 0.832099
vt 0.083759 0.829899
vt 0.086023 0.797412
vt 0.083759 0.799612
vt 0.083759 0.797412
vt 0.096069 0.832099
vt 0.096069 0.829899
vt 0.133043 0.860187
vt 0.133043 0.862387
vt 0.137276 0.860187
vt 0.137276 0.862387
vt 0.115089 0.878576
vt 0.119322 0.878576
vt 0.254259 0.550091
vt 0.354457 0.455277
vt 0.354457 0.550091
vt 0.101713 0.878576
vt 0.106232 0.878576
vt 0.101713 0.885570
vt 0.106232 0.885570
vt 0.709504 0.159479
vt 0.809702 0.112072
vt 0.809702 0.159479
vt 0.115089 0.885570
vt 0.119322 0.885570
vt 0.119668 0.860187
vt 0.124187 0.846198
vt 0.101713 0.832099
vt 0.099450 0.846088
vt 0.101713 0.799612
vt 0.099546 0.813601
vt 0.178615 0.014908
vt 0.102112 0.109722
vt 0.102112 0.014908
vt 0.085926 0.832099
vt 0.083759 0.846088
vt 0.086023 0.799612
vt 0.083759 0.813601
vt 0.177523 0.235092
vt 0.139272 0.329907
vt 0.139272 0.235092
vt 0.457392 0.425462
vt 0.557590 0.330647
vt 0.557590 0.425462
vt 0.137276 0.846198
vt 0.115089 0.887319
vt 0.119322 0.887319
vt 0.709504 0.171331
vt 0.809702 0.171331
vt 0.101713 0.887319
vt 0.106232 0.887319
vt 0.119668 0.846198
vt 0.124187 0.839203
vt 0.101713 0.846088
vt 0.099450 0.853083
vt 0.101713 0.813601
vt 0.099546 0.820596
vt 0.377939 0.685545
vt 0.301436 0.732952
vt 0.301436 0.685545
vt 0.085926 0.846088
vt 0.083759 0.853083
vt 0.086023 0.813601
vt 0.083759 0.820596
vt 0.177523 0.329907
vt 0.139272 0.377314
vt 0.457392 0.330647
vt 0.557590 0.283240
vt 0.133043 0.846198
vt 0.137276 0.839203
vt 0.101020 0.329907
vt 0.024517 0.377314
vt 0.024517 0.329907
vt 0.263184 0.732952
vt 0.263184 0.685545
vt 0.101020 0.235092
vt 0.024517 0.235092
vt 0.063861 0.109722
vt 0.063861 0.014908
vt 0.092688 0.829899
vt 0.089404 0.799612
vt 0.089404 0.797412
vt 0.067465 0.827715
vt 0.105716 0.827715
vt 0.105716 0.827715
vt 0.024517 0.401017
vt 0.101020 0.424721
vt 0.024517 0.424721
vt 0.154885 0.842450
vt 0.150652 0.817961
vt 0.154885 0.817961
vt 0.656609 0.139272
vt 0.756807 0.139272
vt 0.656609 0.381748
vt 0.756807 0.305245
vt 0.756807 0.381748
vt 0.137276 0.853737
vt 0.141795 0.842450
vt 0.092688 0.860078
vt 0.085926 0.862387
vt 0.137276 0.817961
vt 0.141795 0.817961
vt 0.105716 0.843363
vt 0.105716 0.827715
vt 0.067465 0.843363
vt 0.137276 0.823605
vt 0.656609 0.177523
vt 0.756807 0.177523
vt 0.301436 0.732952
vt 0.263184 0.732952
vt 0.263184 0.732952
vt 0.025610 0.109722
vt 0.025610 0.014908
vt 0.224933 0.732952
vt 0.224933 0.685545
vt 0.101020 0.377314
vt 0.092688 0.832099
vt 0.101020 0.401017
vt 0.150652 0.842450
vt 0.656609 0.305245
vt 0.137276 0.842450
vt 0.092688 0.862387
vt 0.377939 0.756656
vt 0.301436 0.780360
vt 0.301436 0.756656
vt 0.263184 0.780360
vt 0.263184 0.756656
vt 0.224933 0.780360
vt 0.224933 0.756656
vt 0.086023 0.820596
vt 0.086023 0.822345
vt 0.086023 0.822345
vt 0.099546 0.827591
vt 0.099546 0.824093
vt 0.099546 0.824093
vt 0.224933 0.732952
vt 0.224933 0.732952
vt 0.143968 0.827715
vt 0.377939 0.732952
vt 0.301436 0.732952
vt 0.377939 0.732952
vt 0.301436 0.732952
vt 0.560961 0.389696
vt 0.599213 0.389696
vt 0.599213 0.389696
vt 0.263184 0.732952
vt 0.224933 0.732952
vt 0.099546 0.827591
vt 0.099546 0.824093
vt 0.086023 0.820596
vt 0.086023 0.822345
vt 0.102112 0.157129
vt 0.063861 0.157129
vt 0.063861 0.157129
vt 0.067465 0.827715
vt 0.105716 0.827715
vt 0.143968 0.827715
vt 0.220471 0.827715
vt 0.086023 0.824093
vt 0.086023 0.827591
vt 0.086023 0.827591
vt 0.554791 0.386074
vt 0.554791 0.384325
vt 0.554791 0.384325
vt 0.099546 0.822345
vt 0.099546 0.822345
vt 0.086023 0.824093
vt 0.086023 0.827591
vt 0.263184 0.744804
vt 0.224933 0.744804
vt 0.102112 0.168981
vt 0.063861 0.180833
vt 0.063861 0.168981
vt 0.377939 0.744804
vt 0.301436 0.744804
vt 0.139272 0.389166
vt 0.101020 0.389166
vt 0.024517 0.389166
vt 0.101713 0.892565
vt 0.106232 0.889068
vt 0.709504 0.206886
vt 0.809702 0.183183
vt 0.809702 0.206886
vt 0.119322 0.889068
vt 0.119668 0.837454
vt 0.124187 0.837454
vt 0.101713 0.854832
vt 0.099450 0.854832
vt 0.099546 0.822345
vt 0.085926 0.854832
vt 0.083759 0.854832
vt 0.086023 0.822345
vt 0.083759 0.822345
vt 0.177523 0.389166
vt 0.457392 0.271388
vt 0.557590 0.271388
vt 0.133043 0.837454
vt 0.137276 0.837454
vt 0.133043 0.839203
vt 0.457392 0.283240
vt 0.177523 0.377314
vt 0.086023 0.820596
vt 0.085926 0.853083
vt 0.101713 0.822345
vt 0.101713 0.853083
vt 0.119668 0.839203
vt 0.377939 0.732952
vt 0.099546 0.820596
vt 0.099546 0.820596
vt 0.099546 0.822345
vt 0.099546 0.820596
vt 0.541267 0.384325
vt 0.541267 0.386074
vt 0.541267 0.386074
vt 0.086023 0.824093
vt 0.101713 0.889068
vt 0.709504 0.183183
vt 0.115089 0.889068
vt 0.086023 0.827591
vt 0.377939 0.732952
vt 0.101713 0.862387
vt 0.137276 0.827384
vt 0.119668 0.829899
vt 0.137276 0.797412
vt 0.101713 0.860078
vt 0.244988 0.843363
vt 0.656609 0.228742
vt 0.656609 0.024517
vt 0.457392 0.235833
vt 0.177523 0.424721
vt 0.085926 0.856580
vt 0.101713 0.827591
vt 0.254259 0.455277
vt 0.709504 0.112072
vt 0.178615 0.109722
vt 0.101713 0.820596
vt 0.067465 0.827715
vt 0.377939 0.780360
vt 0.086023 0.820596
vt 0.099546 0.827591
vt 0.560961 0.389696
vt 0.102112 0.157129
vt 0.554791 0.386074
vt 0.102112 0.180833
vt 0.541267 0.384325
vn -1.0000 0.0000 -0.0000
vn 0.0000 0.0000 -1.0000
vn 1.0000 0.0000 0.0000
vn 0.0000 0.0000 1.0000
vn 0.0000 -1.0000 0.0000
vn 0.0000 1.0000 -0.0000
usemtl マテリアル.003
s off
f 45/1/1 18/2/1 47/3/1
f 13/4/2 19/5/2 24/6/2
f 36/7/3 20/8/3 41/9/3
f 12/10/4 17/11/4 21/12/4
f 40/13/5 5/14/5 14/15/5
f 34/16/6 12/17/6 37/18/6
f 37/18/6 82/19/6 90/20/6
f 38/21/5 1/22/5 33/23/5
f 82/24/4 21/12/4 86/25/4
f 4/26/2 22/27/2 18/28/2
f 6/29/4 23/30/4 20/31/4
f 39/32/6 6/33/6 36/34/6
f 40/13/5 98/35/5 109/36/5
f 97/37/2 24/6/2 99/38/2
f 99/39/2 31/40/2 100/41/2
f 20/31/4 30/42/4 27/43/4
f 18/28/2 29/44/2 25/45/2
f 86/46/4 28/47/4 87/48/4
f 21/12/4 32/49/4 28/50/4
f 41/9/3 27/51/3 44/52/3
f 24/6/2 26/53/2 31/54/2
f 47/3/1 25/55/1 48/56/1
f 48/56/1 3/57/1 49/58/1
f 31/54/2 7/59/2 15/60/2
f 44/52/3 5/61/3 35/62/3
f 28/50/4 1/63/4 11/64/4
f 87/65/4 11/64/4 84/66/4
f 25/45/2 9/67/2 3/68/2
f 27/43/4 14/69/4 5/70/4
f 100/71/2 15/60/2 105/72/2
f 136/73/3 35/62/3 138/74/3
f 32/75/1 33/76/1 1/77/1
f 17/78/1 43/79/1 32/75/1
f 135/80/3 44/81/3 136/82/3
f 134/83/5 109/84/5 142/85/5
f 133/86/6 36/87/6 130/88/6
f 129/89/5 38/21/5 33/23/5
f 125/90/4 114/91/4 126/92/4
f 137/93/6 37/94/6 131/95/6
f 138/96/5 40/13/5 134/97/5
f 130/98/3 41/9/3 135/99/3
f 2/100/1 42/101/1 17/78/1
f 8/102/3 55/103/3 19/104/3
f 7/105/5 54/106/5 15/107/5
f 4/108/6 51/109/6 10/110/6
f 10/110/6 91/111/6 83/112/6
f 9/113/5 49/114/5 3/115/5
f 13/116/6 50/117/6 8/118/6
f 15/107/5 110/119/5 105/120/5
f 19/104/3 56/121/3 26/122/3
f 26/122/3 46/123/3 7/124/3
f 68/125/1 49/58/1 57/126/1
f 67/127/1 48/128/1 68/129/1
f 65/130/1 47/3/1 67/131/1
f 77/132/1 67/131/1 79/133/1
f 79/134/1 68/135/1 80/136/1
f 80/137/1 57/126/1 69/138/1
f 50/139/3 63/140/3 55/103/3
f 46/141/5 62/142/5 54/106/5
f 45/143/6 59/144/6 51/109/6
f 51/145/6 93/146/6 91/147/6
f 52/148/5 57/149/5 49/114/5
f 53/150/6 58/151/6 50/117/6
f 54/152/5 111/153/5 110/154/5
f 55/155/3 64/156/3 56/157/3
f 56/121/3 66/158/3 46/123/3
f 152/159/1 69/138/1 154/160/1
f 151/161/1 80/136/1 152/162/1
f 149/163/1 79/133/1 151/164/1
f 58/165/3 75/166/3 63/140/3
f 66/167/5 74/168/5 62/142/5
f 65/169/6 71/170/6 59/144/6
f 59/171/6 95/172/6 93/173/6
f 60/174/5 69/175/5 57/149/5
f 61/176/6 70/177/6 58/151/6
f 62/178/5 112/179/5 111/153/5
f 63/180/3 76/181/3 64/156/3
f 64/182/3 78/183/3 66/158/3
f 94/184/5 72/185/5 60/186/5
f 93/173/6 104/187/6 103/188/6
f 92/189/5 60/186/5 52/190/5
f 91/147/6 103/191/6 102/192/6
f 81/193/5 52/148/5 9/113/5
f 83/112/6 102/194/6 97/195/6
f 123/196/4 117/197/4 124/198/4
f 132/199/5 89/200/5 38/201/5
f 29/44/2 81/202/2 9/67/2
f 108/203/4 84/66/4 98/204/4
f 107/205/4 87/48/4 108/206/4
f 22/207/2 88/208/2 29/209/2
f 10/210/2 85/211/2 22/27/2
f 89/212/5 11/213/5 38/21/5
f 106/214/4 86/25/4 107/215/4
f 90/20/6 106/216/6 101/217/6
f 101/217/6 16/218/6 39/32/6
f 16/219/4 107/215/4 23/30/4
f 23/220/4 108/206/4 30/221/4
f 30/42/4 98/204/4 14/69/4
f 122/222/2 118/223/2 121/224/2
f 97/195/6 53/150/6 13/116/6
f 102/192/6 61/225/6 53/226/6
f 103/188/6 73/227/6 61/228/6
f 111/153/5 96/229/5 94/184/5
f 110/154/5 94/184/5 92/189/5
f 105/120/5 92/230/5 81/193/5
f 142/85/5 89/200/5 141/231/5
f 88/232/2 105/72/2 81/202/2
f 85/233/2 100/41/2 88/208/2
f 83/234/2 99/38/2 85/211/2
f 109/36/5 84/235/5 89/212/5
f 143/236/6 119/237/6 145/238/6
f 145/238/6 117/239/6 146/240/6
f 146/240/6 116/241/6 144/242/6
f 127/243/3 165/244/3 168/245/3
f 126/246/1 143/247/1 147/248/1
f 121/224/2 115/249/2 127/250/2
f 124/198/4 119/251/4 125/90/4
f 128/252/2 120/253/2 122/222/2
f 172/254/2 122/222/2 173/255/2
f 170/256/4 125/257/4 175/258/4
f 169/259/2 127/250/2 176/260/2
f 171/261/1 147/248/1 178/262/1
f 176/263/3 168/245/3 180/264/3
f 173/265/2 121/266/2 169/267/2
f 174/268/4 124/198/4 170/269/4
f 175/270/4 126/92/4 171/271/4
f 177/272/3 123/273/3 174/274/3
f 178/275/1 153/276/1 179/277/1
f 147/248/1 164/278/1 153/279/1
f 148/280/3 116/281/3 123/273/3
f 167/282/6 144/242/6 165/283/6
f 166/284/6 146/285/6 167/286/6
f 164/287/6 145/238/6 166/288/6
f 163/289/5 141/231/5 162/290/5
f 162/290/5 132/199/5 157/291/5
f 34/292/1 139/293/1 42/101/1
f 42/294/1 140/295/1 43/296/1
f 43/79/1 129/297/1 33/76/1
f 155/298/3 135/99/3 160/299/3
f 150/300/5 134/97/5 159/301/5
f 156/302/6 137/93/6 131/95/6
f 157/303/5 129/89/5 154/304/5
f 158/305/6 130/88/6 155/306/6
f 159/307/5 142/85/5 163/289/5
f 160/308/3 136/82/3 161/309/3
f 161/310/3 138/74/3 150/311/3
f 76/312/3 150/311/3 78/183/3
f 75/313/3 161/309/3 76/181/3
f 74/314/5 163/289/5 112/179/5
f 73/315/6 155/306/6 70/177/6
f 72/316/5 154/304/5 69/175/5
f 71/170/6 149/317/6 156/302/6
f 78/318/5 159/301/5 74/168/5
f 70/319/3 160/299/3 75/166/3
f 96/229/5 157/291/5 72/185/5
f 112/179/5 162/290/5 96/229/5
f 113/320/6 166/288/6 120/253/6
f 120/253/6 167/282/6 118/223/6
f 118/223/6 165/283/6 115/249/6
f 153/279/1 113/321/1 128/322/1
f 179/323/1 128/322/1 172/324/1
f 180/325/3 148/326/3 177/327/3
f 168/245/3 144/328/3 148/280/3
f 137/329/1 151/164/1 139/293/1
f 139/330/1 152/162/1 140/295/1
f 140/331/1 154/160/1 129/297/1
f 158/305/3 177/272/3 133/86/3
f 156/302/1 172/324/1 71/170/1
f 131/95/1 179/323/1 156/302/1
f 133/86/3 174/274/3 39/332/3
f 90/20/4 171/271/4 37/18/4
f 39/32/4 170/269/4 101/217/4
f 95/172/2 169/259/2 104/187/2
f 73/315/3 180/264/3 158/305/3
f 37/94/1 178/262/1 131/95/1
f 104/187/2 176/260/2 73/227/2
f 101/217/4 175/270/4 90/20/4
f 71/333/2 173/255/2 95/172/2
f 45/1/1 4/334/1 18/2/1
f 13/4/2 8/335/2 19/5/2
f 36/7/3 6/336/3 20/8/3
f 12/10/4 2/337/4 17/11/4
f 40/13/5 35/338/5 5/14/5
f 34/16/6 2/339/6 12/17/6
f 37/18/6 12/17/6 82/19/6
f 38/21/5 11/213/5 1/22/5
f 82/24/4 12/10/4 21/12/4
f 4/26/2 10/210/2 22/27/2
f 6/29/4 16/219/4 23/30/4
f 39/32/6 16/218/6 6/33/6
f 40/13/5 14/15/5 98/35/5
f 97/37/2 13/4/2 24/6/2
f 99/39/2 24/340/2 31/40/2
f 20/31/4 23/30/4 30/42/4
f 18/28/2 22/27/2 29/44/2
f 86/46/4 21/341/4 28/47/4
f 21/12/4 17/11/4 32/49/4
f 41/9/3 20/8/3 27/51/3
f 24/6/2 19/5/2 26/53/2
f 47/3/1 18/2/1 25/55/1
f 48/56/1 25/55/1 3/57/1
f 31/54/2 26/53/2 7/59/2
f 44/52/3 27/51/3 5/61/3
f 28/50/4 32/49/4 1/63/4
f 87/65/4 28/50/4 11/64/4
f 25/45/2 29/44/2 9/67/2
f 27/43/4 30/42/4 14/69/4
f 100/71/2 31/54/2 15/60/2
f 136/73/3 44/52/3 35/62/3
f 32/75/1 43/79/1 33/76/1
f 17/78/1 42/101/1 43/79/1
f 135/80/3 41/342/3 44/81/3
f 134/83/5 40/343/5 109/84/5
f 133/86/6 39/332/6 36/87/6
f 129/89/5 132/344/5 38/21/5
f 125/90/4 119/251/4 114/91/4
f 137/93/6 34/345/6 37/94/6
f 138/96/5 35/338/5 40/13/5
f 130/98/3 36/7/3 41/9/3
f 2/100/1 34/292/1 42/101/1
f 8/102/3 50/139/3 55/103/3
f 7/105/5 46/141/5 54/106/5
f 4/108/6 45/143/6 51/109/6
f 10/110/6 51/109/6 91/111/6
f 9/113/5 52/148/5 49/114/5
f 13/116/6 53/150/6 50/117/6
f 15/107/5 54/106/5 110/119/5
f 19/104/3 55/103/3 56/121/3
f 26/122/3 56/121/3 46/123/3
f 68/125/1 48/56/1 49/58/1
f 67/127/1 47/346/1 48/128/1
f 65/130/1 45/1/1 47/3/1
f 77/132/1 65/130/1 67/131/1
f 79/134/1 67/347/1 68/135/1
f 80/137/1 68/125/1 57/126/1
f 50/139/3 58/165/3 63/140/3
f 46/141/5 66/167/5 62/142/5
f 45/143/6 65/169/6 59/144/6
f 51/145/6 59/348/6 93/146/6
f 52/148/5 60/174/5 57/149/5
f 53/150/6 61/176/6 58/151/6
f 54/152/5 62/178/5 111/153/5
f 55/155/3 63/180/3 64/156/3
f 56/121/3 64/182/3 66/158/3
f 152/159/1 80/137/1 69/138/1
f 151/161/1 79/134/1 80/136/1
f 149/163/1 77/132/1 79/133/1
f 58/165/3 70/319/3 75/166/3
f 66/167/5 78/318/5 74/168/5
f 65/169/6 77/349/6 71/170/6
f 59/171/6 71/333/6 95/172/6
f 60/174/5 72/316/5 69/175/5
f 61/176/6 73/315/6 70/177/6
f 62/178/5 74/314/5 112/179/5
f 63/180/3 75/313/3 76/181/3
f 64/182/3 76/312/3 78/183/3
f 94/184/5 96/229/5 72/185/5
f 93/173/6 95/172/6 104/187/6
f 92/189/5 94/184/5 60/186/5
f 91/147/6 93/146/6 103/191/6
f 81/193/5 92/230/5 52/148/5
f 83/112/6 91/111/6 102/194/6
f 123/196/4 116/350/4 117/197/4
f 132/199/5 141/231/5 89/200/5
f 29/44/2 88/232/2 81/202/2
f 108/203/4 87/65/4 84/66/4
f 107/205/4 86/46/4 87/48/4
f 22/207/2 85/233/2 88/208/2
f 10/210/2 83/234/2 85/211/2
f 89/212/5 84/235/5 11/213/5
f 106/214/4 82/24/4 86/25/4
f 90/20/6 82/19/6 106/216/6
f 101/217/6 106/216/6 16/218/6
f 16/219/4 106/214/4 107/215/4
f 23/220/4 107/205/4 108/206/4
f 30/42/4 108/203/4 98/204/4
f 122/222/2 120/253/2 118/223/2
f 97/195/6 102/194/6 53/150/6
f 102/192/6 103/191/6 61/225/6
f 103/188/6 104/187/6 73/227/6
f 111/153/5 112/179/5 96/229/5
f 110/154/5 111/153/5 94/184/5
f 105/120/5 110/119/5 92/230/5
f 142/85/5 109/84/5 89/200/5
f 88/232/2 100/71/2 105/72/2
f 85/233/2 99/39/2 100/41/2
f 83/234/2 97/37/2 99/38/2
f 109/36/5 98/35/5 84/235/5
f 143/236/6 114/351/6 119/237/6
f 145/238/6 119/237/6 117/239/6
f 146/240/6 117/239/6 116/241/6
f 127/243/3 115/352/3 165/244/3
f 126/246/1 114/353/1 143/247/1
f 121/224/2 118/223/2 115/249/2
f 124/198/4 117/197/4 119/251/4
f 128/252/2 113/320/2 120/253/2
f 172/254/2 128/252/2 122/222/2
f 170/256/4 124/354/4 125/257/4
f 169/259/2 121/224/2 127/250/2
f 171/261/1 126/246/1 147/248/1
f 176/263/3 127/243/3 168/245/3
f 173/265/2 122/355/2 121/266/2
f 174/268/4 123/196/4 124/198/4
f 175/270/4 125/90/4 126/92/4
f 177/272/3 148/280/3 123/273/3
f 178/275/1 147/356/1 153/276/1
f 147/248/1 143/247/1 164/278/1
f 148/280/3 144/328/3 116/281/3
f 167/282/6 146/240/6 144/242/6
f 166/284/6 145/357/6 146/285/6
f 164/287/6 143/236/6 145/238/6
f 163/289/5 142/85/5 141/231/5
f 162/290/5 141/231/5 132/199/5
f 34/292/1 137/329/1 139/293/1
f 42/294/1 139/330/1 140/295/1
f 43/79/1 140/331/1 129/297/1
f 155/298/3 130/98/3 135/99/3
f 150/300/5 138/96/5 134/97/5
f 156/302/6 149/317/6 137/93/6
f 157/303/5 132/344/5 129/89/5
f 158/305/6 133/86/6 130/88/6
f 159/307/5 134/83/5 142/85/5
f 160/308/3 135/80/3 136/82/3
f 161/310/3 136/73/3 138/74/3
f 76/312/3 161/310/3 150/311/3
f 75/313/3 160/308/3 161/309/3
f 74/314/5 159/307/5 163/289/5
f 73/315/6 158/305/6 155/306/6
f 72/316/5 157/303/5 154/304/5
f 71/170/6 77/349/6 149/317/6
f 78/318/5 150/300/5 159/301/5
f 70/319/3 155/298/3 160/299/3
f 96/229/5 162/290/5 157/291/5
f 112/179/5 163/289/5 162/290/5
f 113/320/6 164/287/6 166/288/6
f 120/253/6 166/288/6 167/282/6
f 118/223/6 167/282/6 165/283/6
f 153/279/1 164/278/1 113/321/1
f 179/323/1 153/279/1 128/322/1
f 180/325/3 168/358/3 148/326/3
f 168/245/3 165/244/3 144/328/3
f 137/329/1 149/163/1 151/164/1
f 139/330/1 151/161/1 152/162/1
f 140/331/1 152/159/1 154/160/1
f 158/305/3 180/264/3 177/272/3
f 156/302/1 179/323/1 172/324/1
f 131/95/1 178/262/1 179/323/1
f 133/86/3 177/272/3 174/274/3
f 90/20/4 175/270/4 171/271/4
f 39/32/4 174/268/4 170/269/4
f 95/172/2 173/255/2 169/259/2
f 73/315/3 176/263/3 180/264/3
f 37/94/1 171/261/1 178/262/1
f 104/187/2 169/259/2 176/260/2
f 101/217/4 170/269/4 175/270/4
f 71/333/2 172/254/2 173/255/2
