# Blender v3.1.2 OBJ File: ''
# www.blender.org
mtllib ladder.mtl
o ladder_立方体.003
v -1.000000 1.000000 -0.203334
v -1.000000 -1.000000 -0.203334
v -1.000000 -1.000000 0.007834
v -1.000000 1.000000 0.007834
v -0.801414 -1.000000 0.007834
v -0.801414 1.000000 0.007834
v -0.801414 -1.000000 -0.203334
v -0.801414 1.000000 -0.203334
v 1.000000 0.999205 -0.203334
v 1.000000 0.667720 -0.203334
v 1.000000 0.667720 0.007834
v 1.000000 0.999205 0.007834
v 0.801414 0.667720 0.007834
v 0.801414 0.333578 0.007834
v 0.801414 -0.002274 0.007834
v -0.834777 -0.002274 0.007834
v 0.801414 0.999205 -0.203334
v 0.801414 0.667720 -0.203334
v 0.801414 -1.003752 0.007834
v 1.000000 -1.003752 0.007834
v 1.000000 -1.003752 -0.203334
v 0.801414 0.999205 0.007834
v 0.801414 -0.002274 -0.203334
v 0.801414 -0.334680 -0.203334
v 1.000000 -0.334680 -0.203334
v 0.801414 -0.334680 0.007834
v 1.000000 -0.002274 0.007834
v 1.000000 -0.334680 0.007834
v 0.801414 0.333578 -0.203334
v 1.000000 0.333578 -0.203334
v 1.000000 0.333578 0.007834
v 1.000000 -0.002274 -0.203334
v -0.834777 0.333578 0.007834
v 1.000000 -0.669679 -0.203334
v 1.000000 -0.669679 0.007834
v 0.801414 -0.669679 0.007834
v -0.834777 -0.002274 -0.203334
v 0.801414 -0.669679 -0.203334
v 0.801414 -1.003752 -0.203334
v -0.834777 0.999205 0.007834
v -0.834777 0.667720 0.007834
v -0.834777 0.667720 -0.203334
v -0.834777 -0.334680 0.007834
v -0.834777 -0.669679 0.007834
v -0.834777 -0.669679 -0.203334
v -0.834777 0.333578 -0.203334
v -0.834777 -0.334680 -0.203334
v -0.834777 0.999205 -0.203334
vt 0.105506 1.000000
vt 0.105506 0.500369
vt 0.052753 0.500369
vt 0.204726 1.000000
vt 0.204726 0.500369
vt 0.155116 0.500369
vt 0.052753 1.000000
vt 0.052753 0.500369
vt 0.000000 0.500369
vt 0.155116 1.000000
vt 0.155116 0.500369
vt 0.676360 0.666867
vt 0.626750 0.666867
vt 0.626750 0.719620
vt 0.570854 0.667727
vt 0.521244 0.667727
vt 0.521244 0.720480
vt 0.969464 0.500369
vt 0.969464 0.417559
vt 0.916711 0.417559
vt 0.916711 0.500369
vt 0.867101 0.417559
vt 0.867101 0.334086
vt 0.867101 0.250185
vt 0.458355 0.250185
vt 0.049610 0.500369
vt 0.049610 0.417559
vt 0.000000 0.417559
vt 0.623607 0.667531
vt 0.573997 0.667531
vt 0.573997 0.720284
vt 0.257479 0.958725
vt 0.257479 0.909115
vt 0.204726 0.909115
vt 0.049610 0.250185
vt 0.049610 0.167145
vt 0.000000 0.167145
vt 0.679503 0.583409
vt 0.679503 0.500369
vt 0.626750 0.500369
vt 0.916711 0.250185
vt 0.916711 0.167144
vt 0.867101 0.167144
vt 0.969464 0.167144
vt 0.049610 0.334086
vt 0.000000 0.334086
vt 0.626750 0.667531
vt 0.626750 0.584057
vt 0.573997 0.584057
vt 0.916711 0.334086
vt 0.969464 0.334086
vt 0.969464 0.250185
vt 0.468491 0.909115
vt 0.521244 0.909115
vt 0.521244 0.500369
vt 0.000000 0.250185
vt 0.969464 0.083457
vt 0.916711 0.083457
vt 0.867101 0.083457
vt 0.310232 0.500369
vt 0.257479 0.500369
vt 0.257479 0.909115
vt 0.049610 0.083457
vt 0.000000 0.083457
vt 0.049610 0.000000
vt 0.000000 0.000000
vt 0.573997 0.667727
vt 0.573997 0.584270
vt 0.521244 0.584270
vt 0.916711 0.000000
vt 0.867101 0.000000
vt 0.969464 0.000000
vt 0.679503 0.666867
vt 0.679503 0.584057
vt 0.626750 0.584057
vt 0.573997 0.584270
vt 0.573997 0.500369
vt 0.521244 0.500369
vt 0.626750 0.584057
vt 0.626750 0.500369
vt 0.573997 0.500369
vt 0.458355 0.083457
vt 0.257479 0.500369
vt 0.362985 0.500369
vt 0.310232 0.500369
vt 0.310232 0.909115
vt 0.362985 0.909115
vt 0.415738 0.909115
vt 0.415738 0.500369
vt 0.468491 0.500369
vt 0.415738 0.500369
vt 0.415738 0.909115
vt 0.458355 0.334086
vt 0.867101 0.500369
vt 0.458355 0.417559
vt 0.458355 0.167145
vt 0.458355 0.500369
vt 0.052753 1.000000
vt 0.155116 1.000000
vt 0.000000 1.000000
vt 0.676360 0.719620
vt 0.570854 0.720480
vt 0.458355 0.334085
vt 0.000000 0.500369
vt 0.623607 0.720284
vt 0.204726 0.958725
vt 0.626750 0.583409
vt 0.573997 0.667531
vt 0.468491 0.500369
vt 0.310232 0.909115
vt 0.521244 0.667727
vt 0.626750 0.666867
vt 0.521244 0.584270
vt 0.573997 0.584057
vt 0.458355 0.167144
vt 0.204726 0.500369
vt 0.362985 0.909115
vt 0.362985 0.500369
vt 0.468491 0.909115
vt 0.458355 0.250185
vt 0.458355 0.500369
vt 0.458355 0.083457
vt 0.458355 0.417559
vn -1.0000 0.0000 0.0000
vn 0.0000 -0.0000 1.0000
vn 1.0000 0.0000 0.0000
vn 0.0000 0.0000 -1.0000
vn 0.0000 -1.0000 0.0000
vn 0.0000 1.0000 0.0000
usemtl マテリアル
s 1
f 1/1/1 2/2/1 3/3/1
f 4/4/2 3/5/2 5/6/2
f 6/7/3 5/8/3 7/9/3
f 8/10/4 7/11/4 2/2/4
f 5/12/5 3/13/5 2/14/5
f 4/15/6 6/16/6 8/17/6
f 9/18/1 10/19/1 11/20/1
f 12/21/4 11/20/4 13/22/4
f 14/23/4 15/24/4 16/25/4
f 17/26/2 18/27/2 10/28/2
f 19/29/6 20/30/6 21/31/6
f 12/32/5 22/33/5 17/34/5
f 23/35/2 24/36/2 25/37/2
f 15/38/3 26/39/3 24/40/3
f 27/41/4 28/42/4 26/43/4
f 25/44/1 28/42/1 27/41/1
f 18/27/2 29/45/2 30/46/2
f 13/47/3 14/48/3 29/49/3
f 11/20/4 31/50/4 14/23/4
f 30/51/1 31/50/1 11/20/1
f 32/52/1 27/41/1 31/50/1
f 31/50/4 27/41/4 15/24/4
f 29/53/5 14/54/5 33/55/5
f 29/45/2 23/35/2 32/56/2
f 25/44/1 34/57/1 35/58/1
f 28/42/4 35/58/4 36/59/4
f 15/60/6 23/61/6 37/62/6
f 24/36/2 38/63/2 34/64/2
f 38/63/2 39/65/2 21/66/2
f 36/67/3 19/68/3 39/69/3
f 35/58/4 20/70/4 19/71/4
f 34/57/1 21/72/1 20/70/1
f 40/73/3 41/74/3 42/75/3
f 33/76/3 16/77/3 37/78/3
f 43/79/3 44/80/3 45/81/3
f 26/43/4 36/59/4 44/82/4
f 17/34/5 22/33/5 40/83/5
f 13/84/6 18/85/6 42/86/6
f 24/87/5 26/88/5 43/89/5
f 36/90/6 38/91/6 45/92/6
f 23/35/2 29/45/2 46/93/2
f 22/94/4 13/22/4 41/95/4
f 38/63/2 24/36/2 47/96/2
f 18/27/2 17/26/2 48/97/2
f 1/1/1 3/3/1 4/98/1
f 4/4/2 5/6/2 6/99/2
f 6/7/3 7/9/3 8/100/3
f 8/10/4 2/2/4 1/1/4
f 5/12/5 2/14/5 7/101/5
f 4/15/6 8/17/6 1/102/6
f 9/18/1 11/20/1 12/21/1
f 12/21/4 13/22/4 22/94/4
f 14/23/4 16/25/4 33/103/4
f 17/26/2 10/28/2 9/104/2
f 19/29/6 21/31/6 39/105/6
f 12/32/5 17/34/5 9/106/5
f 23/35/2 25/37/2 32/56/2
f 15/38/3 24/40/3 23/107/3
f 27/41/4 26/43/4 15/24/4
f 25/44/1 27/41/1 32/52/1
f 18/27/2 30/46/2 10/28/2
f 13/47/3 29/49/3 18/108/3
f 11/20/4 14/23/4 13/22/4
f 30/51/1 11/20/1 10/19/1
f 32/52/1 31/50/1 30/51/1
f 31/50/4 15/24/4 14/23/4
f 29/53/5 33/55/5 46/109/5
f 29/45/2 32/56/2 30/46/2
f 25/44/1 35/58/1 28/42/1
f 28/42/4 36/59/4 26/43/4
f 15/60/6 37/62/6 16/110/6
f 24/36/2 34/64/2 25/37/2
f 38/63/2 21/66/2 34/64/2
f 36/67/3 39/69/3 38/111/3
f 35/58/4 19/71/4 36/59/4
f 34/57/1 20/70/1 35/58/1
f 40/73/3 42/75/3 48/112/3
f 33/76/3 37/78/3 46/113/3
f 43/79/3 45/81/3 47/114/3
f 26/43/4 44/82/4 43/115/4
f 17/34/5 40/83/5 48/116/5
f 13/84/6 42/86/6 41/117/6
f 24/87/5 43/89/5 47/118/5
f 36/90/6 45/92/6 44/119/6
f 23/35/2 46/93/2 37/120/2
f 22/94/4 41/95/4 40/121/4
f 38/63/2 47/96/2 45/122/2
f 18/27/2 48/97/2 42/123/2
